<?xml version="1.0" encoding="utf-8"?>
<!-- Generator: Adobe Illustrator 18.1.1, SVG Export Plug-In . SVG Version: 6.00 Build 0)  -->
<svg version="1.1" id="Layer_1" xmlns="http://www.w3.org/2000/svg" xmlns:xlink="http://www.w3.org/1999/xlink" x="0px" y="0px"
	 viewBox="0 0 216 47" enable-background="new 0 0 216 47" xml:space="preserve">
<path id="Fill-2_52_" fill="#3A3C42" d="M66.8,11.6c4.1,0,7.4,3.3,7.4,7.4v2.6c0,4.1-3.2,7.4-7.2,7.4h-7.1v6.5h-6V11.6H66.8
	L66.8,11.6z M59.8,24.1h5.4c1.7,0,2.8-1.6,2.8-2.9v-1.9c0-1.5-1.2-2.9-2.8-2.9h-5.4V24.1L59.8,24.1z"/>
<path id="Fill-3_56_" fill="#3A3C42" d="M98.2,26.3c0,5.3-4.2,9.6-10.1,9.6c-6,0-10.8-4.2-10.8-9.6V11.5h6v14.3
	c0,0.3,0.1,0.5,0.2,0.7c0.3,2.3,2.1,3.8,4.3,3.8c2.4,0,4.4-1.8,4.4-4.6V11.5h6V26.3"/>
<path id="Fill-4_49_" fill="#3A3C42" d="M117.5,27l-0.1,0.1l5.2,8.4h-6.3l-5.1-8.3h-2.8v8.3h-6v-24h13c4.3,0,7.2,3.1,7.2,6.9v1.8
	C122.6,23.9,120.1,26.6,117.5,27L117.5,27z M108.4,22.5h5.4c1.7,0,2.7-1.4,2.7-2.5v-1c0-1.4-1.1-2.6-2.7-2.6h-5.4V22.5L108.4,22.5z"
	/>
<path id="Fill-5_49_" fill="#3A3C42" d="M139.7,11.6c4.1,0,7.4,3.3,7.4,7.4v2.6c0,4.1-3.2,7.4-7.2,7.4h-7.1v6.5h-6V11.6H139.7
	L139.7,11.6z M132.8,24.1h5.4c1.7,0,2.8-1.6,2.8-2.9v-1.9c0-1.5-1.2-2.9-2.8-2.9h-5.4V24.1L132.8,24.1z"/>
<path id="Fill-6_49_" fill="#3A3C42" d="M173,24.9c0,6.7-5.2,11-11.7,11c-6.5,0-11.7-4.3-11.7-11v-2.8c0-6.7,5.2-11,11.7-11
	c6.5,0,11.7,4.3,11.7,11V24.9L173,24.9z M166.8,22.2c0-3.1-2.5-5.7-5.6-5.7c-3.1,0-5.6,2.5-5.6,5.7v2.6c0,3.2,2.5,5.7,5.6,5.7
	c3.1,0,5.6-2.5,5.6-5.7V22.2L166.8,22.2z"/>
<path id="Fill-7_49_" fill="#3A3C42" d="M194.3,14.1c0,0.1-2.6,4.1-2.7,4.1c-1.8-1.2-3.9-2-6.1-2c-2.5,0-3.8,0.9-3.8,2.1
	c0,3.5,13.6,1,13.6,10c0,3.8-2.9,7.4-9.9,7.4c-3.6,0-7.4-1.1-9.9-3c0.1-0.1,2.8-3.8,2.9-3.9c1.5,1,3.5,1.9,6.9,1.9
	c2.8,0,3.7-1.1,3.7-2.2c0-3.9-13.6-1.2-13.6-10.2c0-3.7,2.7-7.1,9.7-7.1C188.7,11.3,191.5,12.1,194.3,14.1"/>
<path id="Fill-8_49_" fill="#3A3C42" d="M216,16.3h-11.3v4.9H215v4.7h-10.3v4.9H216v4.7h-17.3v-24H216V16.3"/>
<path fill="#3D3F45" d="M25.7,5.9c2,0.7,6.4,2.1,9.2,3.1l0,16.6l-9,2.9l-3.9,1.3v4.1v4.9c-2.1,0.7-5.2,1.8-6.8,2.3l-9.4-3.2l0-25.6
	c1.4-0.4,3.3-1,5.9-1.9C16.9,8.7,23.2,6.7,25.7,5.9 M25.7,0c-0.2,0-0.4,0-0.6,0.1c0,0-23.7,7.6-23.7,7.6C1.2,7.7,1,7.8,0.9,7.9
	c0,0,0,0-0.1,0C0.7,8.1,0.6,8.2,0.5,8.4c0,0.1-0.1,0.1-0.1,0.2C0.3,8.6,0.2,8.8,0.2,8.9c0,0.1,0,0.1-0.1,0.2C0,9.2,0,9.4,0,9.6
	c0,0,0,30.8,0,30.8c0,0.9,0.6,1.7,1.5,2l13,4.5c0.1,0,0.2,0,0.3,0.1c0.1,0,0.3,0,0.4,0c0.2,0,0.5,0,0.7-0.1c0,0,10.3-3.5,10.4-3.5
	c0.9-0.3,1.5-1,1.5-2v-7.5l11.1-3.6c0.4-0.1,0.7-0.4,1.1-0.6c0.5-0.5,0.8-1,0.8-1.7c0,0,0-21.6,0-21.6c0-0.2,0-0.4-0.1-0.5
	c0-0.1,0-0.1-0.1-0.2c-0.1-0.1-0.1-0.3-0.2-0.4c0,0-0.1-0.1-0.1-0.1c-0.1-0.1-0.2-0.3-0.4-0.4c0,0-0.1-0.1-0.3-0.2
	c-0.1-0.1-0.2-0.1-0.3-0.1c0,0-12.8-4.3-12.8-4.3C26.1,0,25.9,0,25.7,0L25.7,0z"/>
</svg>
