<?xml version="1.0" standalone="no"?>
<!DOCTYPE svg PUBLIC "-//W3C//DTD SVG 1.1//EN" "http://www.w3.org/Graphics/SVG/1.1/DTD/svg11.dtd" >
<svg xmlns="http://www.w3.org/2000/svg">
<metadata></metadata>
<defs>
<font id="pier_sansbold_italic" horiz-adv-x="1024" >
<font-face units-per-em="2048" ascent="1526" descent="-522" />
<missing-glyph horiz-adv-x="614" />
<glyph horiz-adv-x="0" />
<glyph horiz-adv-x="682" />
<glyph unicode=" "  horiz-adv-x="614" />
<glyph unicode="&#x09;" horiz-adv-x="614" />
<glyph unicode="&#xa0;" horiz-adv-x="614" />
<glyph unicode="!" horiz-adv-x="661" d="M186 137q17 65 76.5 110.5t128.5 45.5q71 0 108.5 -46t20.5 -110q-17 -66 -77 -111.5t-130 -45.5q-69 0 -106.5 45.5t-20.5 111.5zM268 397l258 1139h351l-308 -1139h-301z" />
<glyph unicode="&#x22;" horiz-adv-x="866" d="M272 891l146 250q-47 57 -29 137q19 75 87.5 127.5t148.5 52.5q81 0 123.5 -52.5t23.5 -127.5q-13 -59 -61 -107l2 3l-264 -283h-177zM748 891l143 250q-46 60 -29 137q19 75 88.5 127.5t147.5 52.5q83 0 125.5 -52t23.5 -128q-12 -55 -61 -107l2 3l-266 -283h-174z" />
<glyph unicode="#" horiz-adv-x="1980" d="M240 0l188 299h-188l71 287h291l109 172h-179l72 286h283l188 310h320l-191 -310h232l190 310h320l-191 -310h258l-71 -286h-361l-108 -172h247l-71 -287h-353l-182 -299h-321l182 299h-230l-182 -299h-323zM926 586h225l109 172h-230z" />
<glyph unicode="$" horiz-adv-x="1345" d="M129 270l287 228q9 -25 17 -49.5t11 -32.5t5 -10q31 -48 83 -84t111 -54l102 408q-55 19 -94 34.5t-85 41.5t-76 54.5t-53.5 70t-30.5 90.5q-6 69 10 141q29 110 100 201q60 78 148 132t157.5 74.5t141.5 30.5l59 238h238l-62 -246q243 -48 393 -276l-276 -222 q-34 73 -43 86q-56 84 -146 127l-90 -362q50 -17 80.5 -29t74 -31.5t70.5 -40.5t55.5 -49.5t44.5 -65.5t23 -81q12 -52 -10 -150q-22 -85 -78 -165h2q-74 -109 -201 -183t-284 -100l-61 -244h-238l59 234q-138 19 -251.5 92.5t-192.5 191.5zM737 1059l2 2q1 -11 3 -19.5 t7 -16t8.5 -12t13 -10.5t13.5 -8.5t17 -9.5t18 -10l72 287q-72 -25 -113 -80q-23 -33 -35 -76q-6 -24 -6 -47zM885 281q85 34 133 104q13 19 26 59q8 37 15 37l-10 17q-1 15 -5 26.5t-15.5 22t-16.5 15t-25 16t-24 14.5z" />
<glyph unicode="%" horiz-adv-x="1894" d="M315 1159q25 102 98 189t174 137.5t206 50.5q161 0 245.5 -110.5t46.5 -266.5q-40 -156 -179 -265.5t-300 -109.5q-160 0 -245.5 110t-45.5 265zM449 0l948 1536h319l-944 -1536h-323zM604 1159q-11 -43 9 -73.5t61 -30.5q40 0 76.5 30.5t46.5 73.5q11 43 -10 76t-60 33 q-40 0 -76 -32.5t-47 -76.5zM1081 375q38 155 178 265t300 110q161 0 245.5 -109.5t46.5 -265.5q-25 -102 -98 -189t-175 -137.5t-208 -50.5q-159 0 -243 110.5t-46 266.5zM1368 375q-11 -44 9.5 -76.5t60.5 -32.5q41 0 77.5 32t47.5 77q11 43 -10 73.5t-62 30.5 q-40 0 -76.5 -30.5t-46.5 -73.5z" />
<glyph unicode="&#x26;" horiz-adv-x="1509" d="M154 522q33 134 122.5 253t212.5 196q-38 86 -10 209q41 161 180.5 266.5t301.5 105.5q165 0 251 -105.5t45 -266.5q-35 -136 -147 -248q-1 -1 -8.5 -8t-20 -17t-29.5 -22.5t-42 -27t-52 -26.5l166 -253q9 19 28.5 58t23.5 50l294 -55q-18 -52 -30.5 -83t-54 -98 t-97.5 -128q23 -34 100 -155t109 -167h-414l-61 90l-12 -6q-12 -7 -19.5 -11.5t-25.5 -13t-33.5 -14.5t-40.5 -15t-48.5 -15t-56 -12.5t-65 -11t-72.5 -7t-82 -2.5q-150 1 -258 71t-150.5 194t-4.5 275zM467 522q-28 -109 23 -187.5t149 -78.5q111 0 240 63 q-46 72 -133.5 207t-133.5 207q-52 -36 -91 -92.5t-54 -118.5zM793 1180q-11 -41 4 -70t47 -29t61.5 29t40.5 70q10 40 -5.5 68t-47.5 28t-60.5 -28t-39.5 -68z" />
<glyph unicode="'" horiz-adv-x="512" d="M268 891l144 250q-47 57 -29 137q19 75 87.5 127.5t147.5 52.5q82 0 125.5 -52.5t24.5 -127.5q-12 -55 -61 -107l2 3l-267 -283h-174z" />
<glyph unicode="(" horiz-adv-x="753" d="M279 680q164 659 802 1038l76 -241q-20 -12 -42 -27t-69 -53.5t-89.5 -81t-96.5 -110.5t-98.5 -141.5t-87.5 -174t-70 -209.5t-34.5 -210t0 -174.5t28.5 -141.5t42 -110t49.5 -81t42 -53t28.5 -27l-199 -245q-445 383 -282 1042z" />
<glyph unicode=")" horiz-adv-x="794" d="M-88 -117q32 20 67.5 45.5t111 97t137.5 154t129 216.5t104 284q27 109 34.5 209.5t0 174t-28 141.5t-41.5 110.5t-49 81t-42 53t-28 27.5l197 241q449 -378 284 -1038q-164 -661 -802 -1042z" />
<glyph unicode="*" horiz-adv-x="655" d="M319 1092l54 213h96l-41 65l217 105l17 -97l67 97l158 -107l-74 -63h96l-53 -213h-98q40 -54 45 -64l-211 -106l-21 102l-65 -104l-164 108l74 64h-97z" />
<glyph unicode="+" horiz-adv-x="1118" d="M246 455l63 258h260l66 260h276l-65 -260h262l-64 -258h-262l-65 -260h-277l66 260h-260z" />
<glyph unicode="," horiz-adv-x="389" d="M-47 -219l143 250q-49 56 -28 137q19 75 87 128.5t146 53.5q83 0 126 -53t24 -129q-17 -62 -62 -107l2 2l-264 -282h-174z" />
<glyph unicode="-" horiz-adv-x="1097" d="M236 416l65 258h799l-66 -258h-798z" />
<glyph unicode="." horiz-adv-x="530" d="M106 166q19 74 88 127t150 53t125 -53t25 -127q-20 -78 -90 -131t-152 -53t-124 53t-22 131z" />
<glyph unicode="/" horiz-adv-x="901" d="M16 0l947 1536h319l-944 -1536h-322z" />
<glyph unicode="0" horiz-adv-x="1259" d="M184 514l127 506q60 227 256.5 379.5t425.5 152.5q150 0 258.5 -68.5t152.5 -190.5t9 -271l2 -2l-129 -506q-38 -151 -142.5 -273t-247.5 -190.5t-294 -68.5q-150 0 -258 68.5t-151.5 190.5t-8.5 273zM500 522q-27 -107 25 -176.5t151 -69.5q100 0 187 69.5t114 176.5 l123 490q26 107 -27 175t-153 68q-99 0 -185 -68.5t-112 -174.5z" />
<glyph unicode="1" horiz-adv-x="722" d="M264 0l314 1264h-216l68 272h543l-381 -1536h-328z" />
<glyph unicode="2" horiz-adv-x="1261" d="M117 0l67 272q220 124 316 184q528 335 596 607q20 81 -11.5 137.5t-115.5 56.5q-169 13 -293 -225l-287 66q17 37 41.5 77.5t64.5 93.5t99.5 105t128.5 92q168 94 332 88q26 -1 56.5 -7t83.5 -22.5t103 -55.5t82 -95q72 -136 29 -311q-15 -62 -46 -124.5t-63 -112.5 t-87.5 -111t-93 -99t-108 -97.5t-104 -86t-110 -85t-97.5 -75.5h478l-68 -272h-993z" />
<glyph unicode="3" horiz-adv-x="1167" d="M18 258l320 123q76 -102 178 -102q107 0 199.5 69.5t118.5 173.5q15 69 1.5 126.5t-60.5 95t-116 40.5h-270l469 478h-399l67 274h953l-510 -520q119 -73 169 -205.5t11 -288.5q-38 -152 -146 -276.5t-256.5 -194t-304.5 -69.5q-138 0 -249.5 74.5t-174.5 201.5z" />
<glyph unicode="4" horiz-adv-x="1171" d="M131 383l53 215l918 938h317l-219 -881h123l-68 -272h-122l-95 -383h-327l94 383h-674zM623 655h249l89 353z" />
<glyph unicode="5" horiz-adv-x="1193" d="M156 250l293 184q55 -137 153 -153q98 -12 201 60t131 185q27 111 -7 179.5t-128 78.5q-126 14 -201 -53h-262l199 805h823l-68 -272h-493l-52 -207q62 32 136 26q99 1 180 -32t138 -101.5t72 -174t-18 -249.5q-38 -149 -147 -274.5t-255 -196.5t-292 -71 q-138 0 -240 70.5t-163 195.5z" />
<glyph unicode="6" horiz-adv-x="1259" d="M186 522q35 140 148 283q223 270 592 731h356l-371 -455q142 -9 241.5 -85t136.5 -201.5t1 -272.5q-38 -152 -142.5 -275.5t-247.5 -193t-294 -69.5t-261 69.5t-153.5 193.5t-5.5 275zM502 522q-26 -107 24.5 -185.5t147.5 -78.5q98 0 188.5 78.5t116.5 185.5 q28 109 -24 187.5t-150 78.5q-97 0 -186 -78.5t-117 -187.5z" />
<glyph unicode="7" horiz-adv-x="1187" d="M6 0l1022 1264h-676l68 272h1184l-1237 -1536h-361z" />
<glyph unicode="8" horiz-adv-x="1218" d="M168 520q64 261 326 428q-36 95 -5 211q40 163 182.5 278t305.5 115q160 0 246.5 -115.5t46.5 -277.5q-30 -113 -115 -211q182 -167 117 -428q-38 -152 -143 -275.5t-248.5 -193t-294.5 -69.5t-260.5 69.5t-152.5 193.5t-5 275zM481 520q-27 -105 25.5 -174.5 t152.5 -69.5q98 0 185 69t114 175q27 107 -25 176.5t-151 69.5q-100 0 -187 -69.5t-114 -176.5zM782 1159q-10 -39 15 -68.5t59 -29.5q33 0 72 29.5t49 68.5q9 38 -16 67t-58 29q-34 0 -73 -29t-48 -67z" />
<glyph unicode="9" horiz-adv-x="1239" d="M309 1014q38 152 143 276t248.5 194t294.5 70t260.5 -70t152.5 -194.5t5 -275.5q-37 -148 -143 -283l-596 -731h-352l366 453q-141 9 -241 86t-137 203t-1 272zM623 1014q-28 -108 23.5 -186t148.5 -78q98 0 187.5 77.5t117.5 186.5q28 108 -23.5 186t-150.5 78 q-97 0 -186 -77.5t-117 -186.5z" />
<glyph unicode=":" horiz-adv-x="493" d="M86 166q19 74 89 127t149 53q82 0 125 -53t24 -127q-20 -78 -89.5 -131t-152.5 -53q-80 0 -122.5 53t-22.5 131zM240 782q19 75 88.5 129t148.5 54q83 0 126 -53.5t24 -129.5q-20 -77 -89.5 -130.5t-152.5 -53.5q-80 0 -122.5 54t-22.5 130z" />
<glyph unicode=";" horiz-adv-x="550" d="M14 -219l146 250q-50 57 -29 137q19 75 87.5 128.5t146.5 53.5q83 0 125.5 -53t23.5 -129q-17 -63 -61 -107l2 2l-265 -282h-176zM281 782q19 75 88.5 129t148.5 54q83 0 126 -53.5t24 -129.5q-20 -77 -89.5 -130.5t-152.5 -53.5q-80 0 -122.5 54t-22.5 130z" />
<glyph unicode="&#x3c;" horiz-adv-x="991" d="M199 502l41 166l950 555l-80 -324l-545 -315l387 -314l-80 -323z" />
<glyph unicode="=" horiz-adv-x="1118" d="M176 180l66 258h798l-65 -258h-799zM285 612l63 258h799l-64 -258h-798z" />
<glyph unicode="&#x3e;" horiz-adv-x="991" d="M59 -53l80 323l545 314q-58 46 -189 153.5t-198 161.5l80 324l676 -555l-41 -166z" />
<glyph unicode="?" horiz-adv-x="1124" d="M315 1059q59 233 258 376q167 120 366 134q190 13 309 -76q137 -103 116 -300q-4 -37 -14 -77q-18 -72 -70.5 -144t-108.5 -122t-138 -122.5t-130 -123.5q-31 -33 -48 -76t-38 -131h-317q28 122 61.5 198t97.5 134q69 62 161 133t135 113.5t71 101.5q51 107 -10 172 q-51 53 -142 47q-106 -7 -178 -88q-62 -72 -75 -180zM426 119q15 64 74.5 109.5t128.5 45.5q70 0 107 -45t22 -110q-17 -66 -77 -112t-130 -46q-69 0 -105.5 46t-19.5 112z" />
<glyph unicode="@" horiz-adv-x="2004" d="M173 284q-7 117 28 244q44 177 162.5 341t274 282t340.5 189t359 71q127 0 237 -31.5t192 -89.5t142.5 -139t89 -180.5t31.5 -214.5t-30 -240q-19 -79 -49.5 -162.5t-82.5 -180.5t-114.5 -171.5t-150.5 -124t-185 -49.5q-98 0 -177.5 53t-88.5 133q-125 -57 -229 -57 q-150 0 -258 75.5t-149 204.5t-3 281q37 152 143 281t251.5 203.5t295.5 74.5q53 0 105 -25.5t69 -60.5l13 49h292l-204 -819q0 -12 -2 -39.5t12 -56.5t41 -29q33 0 64 25t56.5 70t45 87t37 98t24 80t14.5 54q80 325 -45 507.5t-442 182.5q-82 0 -177 -23t-200.5 -76 t-197 -129t-167 -192.5t-110.5 -255.5q-23 -93 -27.5 -170.5t18 -162t77.5 -158.5q151 -200 477 -207q89 0 149 22l195 -135q-149 -98 -395 -98q-123 0 -236.5 32.5t-203.5 91.5t-160 142t-107 184.5t-44 218.5zM827 518q-32 -124 15 -212.5t145 -88.5q106 0 193.5 87 t119.5 214q31 126 -13.5 213.5t-149.5 87.5q-98 0 -188.5 -88t-121.5 -213z" />
<glyph unicode="A" horiz-adv-x="1421" d="M-59 0l1013 1536h211l250 -1536h-352l-53 295h-523l-192 -295h-354zM662 567h315l-49 443q-37 -60 -128.5 -214.5t-137.5 -228.5z" />
<glyph unicode="B" horiz-adv-x="1335" d="M111 0l381 1536h626q111 0 191.5 -56t110.5 -151q16 -50 16 -104q0 -50 -13 -103q-34 -139 -155 -260q63 -70 84 -166q9 -42 10 -87q0 -58 -16 -120q-33 -133 -126 -245.5t-221.5 -178t-261.5 -65.5h-626zM506 272h299q66 0 127.5 63.5t83.5 153.5q10 39 10 73 q0 42 -16 78q-28 64 -90 67h-306zM682 979h305q32 8 64.5 50t44.5 93q7 30 7 55t-6 45q-13 42 -46 42h-299z" />
<glyph unicode="C" horiz-adv-x="1574" d="M230 515q-1 23 -1 47q0 98 25 206q55 218 204.5 398.5t356 283t422.5 102.5q174 0 314 -69t227 -201l-277 -221q-37 105 -126 162t-206 57q-99 0 -196.5 -43t-174.5 -114t-134 -163.5t-82 -191.5q-18 -78 -18 -151q0 -78 27 -144q26 -65 68 -114t108 -77t146 -28 q99 0 201 44.5t240 168.5l164 -217q-151 -131 -325 -199.5t-347 -68.5q-130 0 -240.5 39t-189 109.5t-128.5 168.5t-58 216z" />
<glyph unicode="D" horiz-adv-x="1622" d="M123 0l381 1536h616q102 0 193 -28t160 -78t121.5 -120.5t78.5 -155.5t30 -183q0 -12 1 -25q0 -87 -25 -178q-52 -209 -196 -385t-341.5 -279t-402.5 -104h-616zM518 272h287q122 1 238.5 73.5t197 185t111.5 237.5q16 75 16 146t-23.5 134.5t-62 111t-98.5 75.5t-133 29 h-287z" />
<glyph unicode="E" horiz-adv-x="1384" d="M137 0l381 1536h1073l-67 -272h-746l-82 -330h611l-68 -275h-610l-97 -387h783l-68 -272h-1110z" />
<glyph unicode="F" horiz-adv-x="1306" d="M137 0l381 1536h1071l-67 -272h-744l-88 -355h608l-67 -272h-608l-158 -637h-328z" />
<glyph unicode="G" horiz-adv-x="1785" d="M215 515q-2 24 -2 49q0 97 25 204q54 218 204.5 398.5t357 283t421.5 102.5q174 0 313.5 -69t226.5 -201l-270 -215q-31 92 -126.5 152.5t-211.5 60.5q-100 0 -197.5 -43t-174 -114t-133 -163.5t-81.5 -191.5q-18 -78 -18 -151q0 -78 27 -144q26 -65 67.5 -114t107.5 -77 t146 -28q156 0 312 109t227 266h-357l68 274h700l-223 -903h-328l33 133q-247 -151 -500 -151q-129 0 -239.5 39t-189 109.5t-128 168.5t-57.5 216z" />
<glyph unicode="H" horiz-adv-x="1505" d="M100 0l381 1536h328l-156 -631h564l155 631h328l-381 -1536h-328l156 631h-563l-156 -631h-328z" />
<glyph unicode="I" horiz-adv-x="636" d="M125 0l381 1536h328l-381 -1536h-328z" />
<glyph unicode="J" horiz-adv-x="1265" d="M190 384q3 79 25 167h328q-22 -83 -22 -144q0 -153 145 -153q40 0 74 10.5t58 26t44.5 39.5t33 44.5t23.5 48t15.5 43.5t9.5 38l256 1032h329l-256 -1032q-20 -80 -54 -152.5t-90 -141.5t-127 -118.5t-170 -79.5t-214 -30t-198.5 32.5t-128.5 87t-65 128.5 q-17 64 -17 131q0 11 1 23z" />
<glyph unicode="K" horiz-adv-x="1687" d="M164 0l381 1536h327l-145 -586q86 61 381.5 268t450.5 318h473l-930 -649q85 -142 266.5 -450.5t257.5 -436.5h-387l-393 702l-215 -139l-139 -563h-328z" />
<glyph unicode="L" horiz-adv-x="1226" d="M96 0l381 1536h330l-313 -1264h643l-68 -272h-973z" />
<glyph unicode="M" horiz-adv-x="2068" d="M129 0l381 1536h352l275 -1040q586 773 790 1040h354l-380 -1536h-328l223 897l-682 -897h-199l-235 897l-223 -897h-328z" />
<glyph unicode="N" horiz-adv-x="1716" d="M162 0l381 1536h348l432 -1010l250 1010h330l-381 -1536h-351l-430 1008l-249 -1008h-330z" />
<glyph unicode="O" horiz-adv-x="1703" d="M194 515q-2 24 -2 49q0 97 25 204q54 218 204.5 398.5t357 283t421.5 102.5q129 0 240 -39t189.5 -109t129 -168t58.5 -216q2 -24 2 -49q0 -96 -25 -203q-41 -164 -140 -310.5t-230.5 -250.5t-292.5 -164.5t-322 -60.5q-129 0 -239.5 39t-189 109.5t-128.5 168.5t-58 216 zM528 614q1 -74 27.5 -139.5t69 -114.5t108 -77.5t144.5 -28.5q100 0 198 43t175 114.5t134 164.5t82 192q17 76 17 147v7q-1 74 -27 139.5t-68.5 114t-108.5 76.5t-146 28q-131 0 -256 -73.5t-212 -190.5t-120 -248q-17 -75 -17 -146v-8z" />
<glyph unicode="P" horiz-adv-x="1445" d="M139 0l381 1536h619q92 -1 171 -30.5t134.5 -82.5t91.5 -125q35 -72 40 -158q1 -16 1 -33q0 -71 -18 -149q-39 -157 -147.5 -289.5t-257.5 -209.5t-302 -78h-289l-94 -381h-330zM631 653h284q99 0 192 89.5t124 215.5q12 49 12 92q1 68 -29 124q-48 90 -147 90h-285z" />
<glyph unicode="Q" horiz-adv-x="1830" d="M253 515q-2 24 -2 49q0 97 25 204q55 218 205.5 398.5t357.5 283t423 102.5q214 0 369.5 -102.5t216.5 -283.5q32 -95 32 -202q0 -94 -25 -196q-70 -277 -288 -492q39 -59 151 -217l-258 -196l-147 221q-182 -102 -443 -102q-130 0 -241 39t-189.5 109.5t-128.5 168.5 t-58 216zM589 621v-6q0 -70 23 -133q25 -67 65.5 -117.5t108 -80.5t152.5 -30q130 0 225 51l-151 223l260 195l135 -209q85 123 119 254q17 76 17 146v8q-1 74 -27 139.5t-68.5 114t-108 76.5t-145.5 28q-100 0 -198 -43t-174.5 -114t-133.5 -163.5t-82 -191.5 q-16 -74 -17 -147z" />
<glyph unicode="R" horiz-adv-x="1425" d="M119 0l381 1536h616q156 -1 268 -74t156 -201q23 -67 22 -143q0 -67 -18 -141q-39 -159 -149 -288.5t-260 -201.5l208 -487h-337l-179 418h-276l-102 -418h-330zM621 690h284q101 0 191.5 82t120.5 205q12 48 12 89q-1 66 -31 116q-50 82 -151 82h-285z" />
<glyph unicode="S" horiz-adv-x="1353" d="M76 270l286 228q21 -91 114.5 -167.5t203.5 -76.5q263 5 305 170q5 20 5.5 38t-4 34t-12 29.5t-19.5 26t-24.5 23t-29.5 20t-32.5 17t-35.5 15.5t-35.5 13.5t-35.5 12.5q-40 13 -72.5 25t-71.5 29.5t-69.5 35t-62 41.5t-54.5 49.5t-42 57.5q-18 31 -26 67q-8 33 -8 74v6 q0 44 13 90q34 134 136 232.5t231.5 145t267.5 46.5q168 0 306 -77t228 -213l-276 -222q-21 40 -48 77t-67 76.5t-95 63t-116 23.5q-83 0 -152 -38.5t-88 -115.5q-5 -18 -5 -35t5 -31.5t11.5 -27.5t19.5 -24.5t24.5 -21t29 -18.5t31 -16t34 -15t34 -12.5t33.5 -11.5 q42 -14 76.5 -26.5t74 -30.5t71 -36.5t63.5 -43t55 -51t41 -59.5t26 -69q8 -32 8 -71v-10q-1 -44 -13 -92q-37 -146 -143 -247.5t-248 -148t-312 -46.5q-191 0 -314.5 72.5t-221.5 215.5z" />
<glyph unicode="T" horiz-adv-x="1226" d="M274 1264l68 272h1219l-68 -272h-444l-314 -1264h-329l313 1264h-445z" />
<glyph unicode="U" horiz-adv-x="1499" d="M198 377q-1 20 -1 40q1 43 5 81q6 56 21 114l230 924h327l-229 -924q-5 -23 -9 -44.5t-6 -59.5q-1 -15 -2 -28q0 -22 3 -42q4 -32 18.5 -67t39.5 -59.5t70 -41t105 -16.5q83 0 151.5 31t109 72t72 97t43 90.5t19.5 67.5l230 924h329l-229 -924q-15 -58 -36 -114.5 t-56 -120.5t-79 -119t-106.5 -107t-136.5 -88.5t-171.5 -58.5t-207.5 -22t-196.5 22t-141.5 58.5t-92.5 88.5t-54 107t-19.5 119z" />
<glyph unicode="V" horiz-adv-x="1306" d="M295 1536h350l113 -940q45 74 255.5 417.5t319.5 522.5h350l-972 -1536h-205z" />
<glyph unicode="W" horiz-adv-x="2109" d="M338 1536h344l82 -895q251 417 541 895h194l96 -893q60 101 167.5 282.5t196.5 332t163 278.5h346l-928 -1536h-194l-103 893q-71 -117 -260.5 -425t-286.5 -468h-192z" />
<glyph unicode="X" horiz-adv-x="1456" d="M-16 0l743 793l-336 743h357l221 -492l463 492h378l-725 -772q21 -47 152 -338t190 -426h-344l-237 526l-479 -526h-383z" />
<glyph unicode="Y" horiz-adv-x="1411" d="M285 1536h393l252 -621l561 621h393l-866 -930l-150 -606h-329l149 606z" />
<glyph unicode="Z" horiz-adv-x="1525" d="M158 0l69 281l1018 983h-774l68 272h1161l-70 -281l-1016 -983h772l-67 -272h-1161z" />
<glyph unicode="[" horiz-adv-x="620" d="M25 -330l548 2196h543l-69 -273h-216l-409 -1650h215l-70 -273h-542z" />
<glyph unicode="\" horiz-adv-x="845" d="M362 1536h318l186 -1536h-323z" />
<glyph unicode="]" horiz-adv-x="620" d="M-133 -330l70 273h213l409 1650h-215l70 273h544l-548 -2196h-543z" />
<glyph unicode="^" d="M406 1106l360 401h276l156 -401h-280l-78 143l-152 -143h-282z" />
<glyph unicode="_" horiz-adv-x="1165" d="M-41 -258l64 258h1085l-66 -258h-1083z" />
<glyph unicode="`" d="M459 1382l321 146l119 -422h-274z" />
<glyph unicode="a" horiz-adv-x="1101" d="M119 297q40 161 185.5 258.5t352.5 97.5h158q4 17 4 32q1 35 -21 59q-30 34 -96 34t-107.5 -14t-84.5 -51l-193 129q104 93 225.5 139.5t243.5 46.5q88 0 156 -18.5t107.5 -49.5t64.5 -72q24 -42 26 -88q0 -7 1 -13q0 -40 -8 -80l-177 -707h-303l17 72q-46 -38 -112 -62 t-134 -24q-318 0 -318 215q0 43 13 96zM420 291q-1 -5 0 -10q0 -33 24 -49q28 -19 82 -19q90 0 145 39.5t64 81.5l23 90h-178q-61 0 -108.5 -38t-51.5 -95z" />
<glyph unicode="b" horiz-adv-x="1245" d="M104 0l371 1487h303l-137 -547q33 35 114.5 60.5t135.5 25.5q220 0 320 -148q64 -95 64 -221q0 -71 -20 -153q-57 -225 -239 -372.5t-404 -147.5q-53 0 -113.5 25t-74.5 59l-16 -68h-304zM482 402q5 -52 23 -94t55.5 -68.5t86.5 -26.5q95 0 184.5 85.5t120.5 205.5 q12 48 12 91q0 65 -28 116q-47 86 -143 86q-99 0 -186.5 -92t-114.5 -201q-11 -38 -11 -77q0 -12 1 -25z" />
<glyph unicode="c" horiz-adv-x="1116" d="M190 504q36 147 137.5 267t240 187.5t284.5 67.5q256 0 379 -186l-262 -193q-12 70 -63.5 99.5t-114.5 29.5q-96 0 -181.5 -76.5t-115.5 -195.5q-12 -46 -11 -85q1 -61 29 -109q48 -76 143 -77q160 0 244 129l164 -192q-212 -186 -469 -186q-146 0 -252 67t-148 187 q-22 63 -21 134q0 63 17 132z" />
<glyph unicode="d" horiz-adv-x="1189" d="M170 238q-18 59 -19 125q0 67 19 141q56 227 229.5 374.5t393.5 147.5q55 0 123.5 -25t84.5 -59l138 545h305l-371 -1487h-305l16 68q-36 -34 -106 -59t-123 -25q-147 0 -248 67t-137 187zM475 504q-12 -48 -13 -91q0 -63 28 -115q46 -86 141 -85q99 0 187 91t116 200 q10 38 10 76q0 14 -1 27q-5 52 -22.5 94t-55.5 69t-89 27q-95 0 -182.5 -85.5t-118.5 -207.5z" />
<glyph unicode="e" horiz-adv-x="1193" d="M184 296q-5 32 -6 66q0 67 21 142q57 229 233.5 375.5t411.5 146.5q236 0 342 -146q68 -94 68 -223q0 -71 -21 -153l-16 -68h-721q-6 -24 -7 -46q0 -56 41 -98q56 -59 136 -59q77 0 147 31.5t119 93.5l155 -186q-89 -90 -204 -139t-279 -49q-122 0 -214 39t-141 108 t-65 165zM549 629h397q1 9 1 17q0 58 -37 92q-42 38 -128 38q-81 0 -141 -39.5t-92 -107.5z" />
<glyph unicode="f" horiz-adv-x="804" d="M168 0l188 762h-112l63 250h113l10 47q59 236 176.5 341t313.5 105q80 0 151 -53l-59 -240q-35 41 -119 41q-30 0 -54.5 -13t-40 -30.5t-29.5 -47t-20.5 -50t-15.5 -53.5l-10 -47h240l-64 -250h-240l-188 -762h-303z" />
<glyph unicode="g" horiz-adv-x="1230" d="M61 -303l263 194q34 -77 71.5 -114t96.5 -37q103 0 190 97.5t121 232.5q-35 -35 -107 -59.5t-123 -24.5q-145 0 -245.5 67t-137.5 186q-18 59 -18 126t18 141q56 224 239.5 373t404.5 149q55 0 114.5 -25t73.5 -59l18 68h303l-245 -981q-37 -149 -135 -272t-239.5 -196 t-295.5 -73q-125 0 -213.5 53t-153.5 154zM494 506q-11 -47 -11 -89q0 -65 27 -117q45 -87 139 -87q98 0 188.5 92.5t116.5 200.5q11 37 11 75q0 14 -1 29q-6 52 -23.5 94t-55.5 68.5t-88 26.5q-94 0 -183 -86t-120 -207z" />
<glyph unicode="h" horiz-adv-x="1200" d="M102 0l371 1487h303l-147 -588q76 127 305 127q209 0 270 -106q31 -54 31 -141q0 -85 -29 -201l-143 -578h-303l143 578q18 67 18 112q-1 35 -11 57q-24 52 -111 52q-195 0 -250 -221l-143 -578h-304z" />
<glyph unicode="i" horiz-adv-x="534" d="M96 0l252 1012h303l-252 -1012h-303zM410 1303q15 63 72.5 106t123.5 43q68 0 104 -43q25 -30 25 -70q0 -17 -4 -36q-15 -64 -73.5 -109t-127.5 -45q-66 1 -100 45q-24 31 -25 71q0 18 5 38z" />
<glyph unicode="j" horiz-adv-x="612" d="M-180 -313l69 274q40 -32 58 -39q26 -10 78 -10q16 0 33.5 6t40 21.5t43 50t32.5 84.5l236 938h303l-236 -938q-58 -238 -161.5 -343.5t-254.5 -105.5q-83 0 -115.5 8.5t-125.5 53.5zM475 1303q15 63 73 106t126 43q67 0 102 -43q25 -30 25 -70q0 -17 -4 -36 q-15 -64 -73 -109t-126 -45q-67 0 -102 45q-25 31 -25 72q0 18 4 37z" />
<glyph unicode="k" horiz-adv-x="1206" d="M104 0l371 1487h305l-182 -729l354 254h453l-592 -410q58 -105 182.5 -324t157.5 -278h-336l-235 440q-6 -5 -39 -27.5t-37 -25.5l-96 -387h-306z" />
<glyph unicode="l" horiz-adv-x="540" d="M86 0l379 1524h305l-379 -1524h-305z" />
<glyph unicode="m" horiz-adv-x="1890" d="M119 0l252 1012h303l-25 -92q65 52 146 79t157 27q196 0 269 -137q59 55 158.5 93t226.5 44q211 0 273 -105q32 -54 32 -143q0 -84 -29 -200l-143 -578h-305l143 578q17 66 17 111q0 35 -10 58q-24 52 -109 52q-195 0 -250 -221l-144 -578h-305l144 578q17 66 17 112 q0 35 -10 57q-23 52 -110 52q-197 0 -252 -221l-143 -578h-303z" />
<glyph unicode="n" horiz-adv-x="1165" d="M82 0l252 1012h303l-25 -97q69 54 149 82.5t150 28.5q211 0 273 -106q31 -54 30 -141q0 -85 -28 -201l-144 -578h-303l144 578q17 65 17 111q0 35 -10 57q-24 52 -112 53q-194 0 -250 -221l-143 -578h-303z" />
<glyph unicode="o" horiz-adv-x="1202" d="M172 504q36 147 137.5 267t240 187.5t284.5 67.5q147 0 252.5 -67.5t147.5 -187.5q22 -64 21 -136q0 -62 -16 -131q-57 -223 -248.5 -371.5t-415.5 -148.5q-223 0 -341 149q-80 101 -80 236q0 64 18 135zM475 504q-12 -45 -12 -85q0 -63 30 -109q48 -76 144 -77 q97 0 183 76.5t116 194.5q11 45 11 85q1 63 -29 111q-48 76 -146 76q-96 0 -181.5 -76.5t-115.5 -195.5z" />
<glyph unicode="p" horiz-adv-x="1230" d="M-6 -475l368 1487h304l-19 -72q42 39 103.5 62.5t126.5 23.5q146 0 247.5 -67.5t139.5 -186.5q18 -61 18 -128q0 -66 -18 -140q-58 -227 -231.5 -373.5t-393.5 -146.5q-49 0 -116.5 25.5t-92.5 58.5l-135 -543h-301zM494 352q18 -64 59 -101.5t100 -37.5q95 0 184.5 85.5 t120.5 205.5q12 48 12 91q0 64 -28 116q-47 86 -143 86q-58 0 -119.5 -38.5t-108.5 -101.5q-50 -71 -71 -153q-12 -46 -12 -91q0 -31 6 -61z" />
<glyph unicode="q" horiz-adv-x="1255" d="M154 296q-5 30 -5 61q0 70 21 147q56 225 238.5 373.5t404.5 148.5q56 0 115.5 -24.5t72.5 -59.5l19 70h305l-371 -1487h-305l135 543q-32 -33 -112.5 -58.5t-136.5 -25.5q-110 0 -193.5 39t-129 108.5t-58.5 164.5zM473 504q-12 -48 -12 -90q0 -64 28 -116 q47 -85 142 -85q98 0 186.5 91.5t116.5 199.5q10 36 10 73q0 14 -2 29q-5 52 -23 94.5t-56 69.5t-87 27q-95 0 -183.5 -85.5t-119.5 -207.5z" />
<glyph unicode="r" horiz-adv-x="774" d="M104 0l252 1012h303l-22 -90q38 49 108.5 76.5t128.5 27.5q54 0 84 -5t58 -24l-98 -227q-17 8 -30.5 13.5t-22.5 8.5t-19.5 4t-15 1.5t-16 0t-15.5 -0.5q-192 0 -250 -228l-141 -569h-304z" />
<glyph unicode="s" horiz-adv-x="960" d="M90 170l248 199q31 -54 78.5 -89.5t97.5 -39.5q9 -1 19 -1q38 -1 72 13q43 16 57 41q8 17 9 29t-9.5 21.5t-22 15.5t-29.5 10.5t-32 7t-29.5 5.5t-22.5 5q-29 10 -50.5 17.5t-49.5 19t-48.5 23t-43 27t-37 32t-27.5 38.5t-19 45.5t-5.5 53t8.5 62.5q21 85 77.5 150.5 t126.5 100.5t134.5 52.5t116.5 17.5q108 0 201 -47.5t159 -136.5l-246 -197q-26 52 -78 88.5t-100 36.5q-21 0 -42 -5t-44.5 -24t-30.5 -49q-6 -24 17.5 -42.5t65.5 -30.5t93 -28t100 -35.5t87 -52.5q37 -33 53 -79q8 -23 8 -51q0 -29 -8 -64q-25 -101 -99 -176t-176 -112 t-218 -37q-107 0 -201.5 49.5t-159.5 136.5z" />
<glyph unicode="t" horiz-adv-x="851" d="M231 762l64 250h113l71 291h303l-71 -291h239l-63 -250h-240l-82 -332q-18 -74 -19 -116q0 -15 3 -25q12 -56 78 -56q60 0 141 52l-61 -250q-104 -51 -179 -51q-200 0 -264 100q-33 51 -33 139q0 86 31 207l82 332h-113z" />
<glyph unicode="u" horiz-adv-x="1206" d="M207 434l145 578h303l-145 -578q-17 -66 -17 -111q1 -35 11 -58q24 -52 110 -52q195 0 250 221l146 578h303l-252 -1012h-303l22 92q-54 -51 -139.5 -79.5t-157.5 -28.5q-211 0 -273 106q-32 54 -32 143q0 84 29 201z" />
<glyph unicode="v" horiz-adv-x="1062" d="M233 1012h314l67 -578q62 95 186 298.5t173 279.5h311l-676 -1012h-198z" />
<glyph unicode="w" horiz-adv-x="1558" d="M229 1012h312l37 -557l313 557h223l35 -559l315 559h310l-637 -1012h-199l-68 489q-36 -58 -98.5 -157.5t-113 -180t-93.5 -151.5h-200z" />
<glyph unicode="x" horiz-adv-x="1048" d="M-10 0l499 520l-217 492h318l102 -277q42 45 122.5 139t121.5 138h348l-485 -506l233 -506h-315l-119 283l-258 -283h-350z" />
<glyph unicode="y" horiz-adv-x="1142" d="M-96 -381l149 250q23 -29 56 -46.5t65 -17.5q35 0 71 27t77 87.5t60 93.5t58 106q8 14 11 20l-152 873h315l84 -506q61 92 179.5 269t158.5 237h316q-416 -617 -662 -983q-62 -93 -105 -153.5t-95 -126t-94.5 -105t-91.5 -74t-98.5 -49.5t-103.5 -15q-85 0 -198 113z" />
<glyph unicode="z" horiz-adv-x="1028" d="M90 0l57 233l545 529h-413l63 250h770l-57 -224l-549 -538h416l-62 -250h-770z" />
<glyph unicode="{" horiz-adv-x="964" d="M266 623l74 292q4 0 40.5 -0.5t50 0.5t42.5 4t51 12t41 23q31 24 62.5 118.5t62 208.5t51.5 157q59 147 189 252q176 139 502 133l-74 -297q-58 0 -110.5 -10t-101 -31t-83 -59.5t-47.5 -90.5q-5 -20 -20 -83.5t-23 -94t-24.5 -87.5t-33 -92t-39.5 -78t-51.5 -75 t-62.5 -55q34 -54 42.5 -124t0.5 -128t-27 -135q-16 -56 -25 -90.5t-16 -75.5t-5 -65t9.5 -50.5t26 -40.5t47 -26.5t70 -17.5t96.5 -5l-74 -299q-180 0 -280.5 33t-155.5 102q-78 103 -63 252l-2 -2q1 36 18 116t33 148.5t24 137t-10 82.5q-18 23 -62.5 32.5t-142.5 8.5z " />
<glyph unicode="}" horiz-adv-x="964" d="M-117 -287l74 299q55 0 98.5 5t78 17.5t60 26.5t46 40t34.5 50.5t27 65t21.5 76t19.5 90.5q31 121 76.5 215t132.5 172q-22 23 -34.5 55t-14 74.5t0 78.5t13 92t19 88t23.5 93t22 84q13 52 -2 90.5t-53.5 59.5t-86 31t-106.5 10l74 297q332 6 436 -133q77 -102 65 -252 q-1 -36 -18 -115.5t-33 -148t-24 -137.5t10 -83q12 -14 29 -23t44 -12t40 -4t49 -0.5t40 0.5l-73 -292q-95 1 -143.5 -8.5t-79.5 -32.5q-31 -24 -62.5 -118t-62.5 -208.5t-52 -157.5l2 2q-63 -149 -190 -252q-90 -69 -206 -102t-294 -33z" />
<glyph unicode="&#xa3;" horiz-adv-x="1144" d="M59 0q17 73 55 140.5t70.5 105.5t91.5 100q116 125 146 166h-238l56 219h225q-19 177 14 305q24 98 74 177.5t135 160.5q58 56 127 95t130.5 55.5t96 22.5t62.5 7q173 9 326 -116l-234 -254q-50 73 -154 73q-11 0 -29 -2.5t-56 -19.5t-68 -47q-163 -158 -90 -457h342 l-56 -219h-340q-6 -12 -24 -46.5t-28 -51.5t-27.5 -45t-37 -51.5t-42.5 -45.5h534l-67 -272h-994z" />
<glyph unicode="&#xa5;" horiz-adv-x="1329" d="M211 268l55 219h355l8 35h-355l56 219h264l-348 795h393l252 -621l559 621h393l-741 -795h256l-55 -219h-347l-8 -35h346l-55 -219h-346l-66 -268h-327l65 268h-354z" />
<glyph unicode="&#xa8;" d="M492 1303q15 63 71.5 106t124.5 43t104 -43t21 -106q-15 -64 -74 -109t-127 -45q-67 0 -101 44.5t-19 109.5zM879 1303q15 63 72.5 106t125.5 43t104 -43t21 -106q-15 -64 -74 -109t-127 -45q-67 0 -102 44.5t-20 109.5z" />
<glyph unicode="&#xab;" horiz-adv-x="976" d="M319 1071q15 59 60 107l266 280h170l-141 -252q47 -53 28 -135q-20 -77 -88 -129.5t-147 -52.5q-82 0 -125 53t-23 129zM797 1071q15 58 61 107l264 280h172l-143 -252q47 -54 29 -135q-20 -76 -88 -129t-146 -53q-83 0 -126 52.5t-23 129.5z" />
<glyph unicode="&#xad;" horiz-adv-x="1097" d="M236 416l65 258h799l-66 -258h-798z" />
<glyph unicode="&#xb0;" horiz-adv-x="647" d="M317 1233q31 126 140.5 214.5t234.5 88.5q127 0 194 -88.5t36 -214.5q-32 -125 -142 -212t-237 -87q-125 0 -191.5 87.5t-34.5 211.5zM528 1233q-13 -50 4.5 -87.5t53.5 -37.5q37 0 74.5 37t50.5 88q12 52 -6.5 90.5t-55.5 38.5q-36 0 -72.5 -38.5t-48.5 -90.5z" />
<glyph unicode="&#xb1;" d="M133 0l64 258h798l-63 -258h-799zM279 588l63 256h260l66 262h276l-65 -262h262l-64 -256h-262l-65 -262h-277l66 262h-260z" />
<glyph unicode="&#xb4;" d="M774 1126l328 422l248 -145l-301 -277h-275z" />
<glyph unicode="&#xb7;" horiz-adv-x="534" d="M106 166q19 74 88 127t150 53t125 -53t25 -127q-20 -78 -90 -131t-152 -53t-124 53t-22 131z" />
<glyph unicode="&#xb8;" horiz-adv-x="444" d="M-111 -383l115 117q9 -15 33 -15q22 0 40.5 15t24.5 37q5 22 -6 36.5t-33 14.5q-34 0 -55 -31l-90 64l303 268l113 -135l-68 -51q47 -30 67 -83t5 -116q-23 -92 -106.5 -157.5t-178.5 -65.5q-101 0 -164 102z" />
<glyph unicode="&#xbb;" horiz-adv-x="929" d="M274 891l144 250q-47 57 -29 137q19 75 87.5 127.5t148.5 52.5q81 0 123.5 -52.5t23.5 -127.5q-12 -57 -59 -104l-264 -283h-175zM750 891l143 250q-46 60 -29 137q19 75 88.5 127.5t147.5 52.5q83 0 125.5 -52t23.5 -128q-12 -53 -59 -104l-266 -283h-174z" />
<glyph unicode="&#xc0;" horiz-adv-x="1421" d="M-59 0l1013 1536h211l250 -1536h-352l-53 295h-523l-192 -295h-354zM662 567h315l-49 443q-37 -60 -128.5 -214.5t-137.5 -228.5zM786 1894l322 146l119 -422h-275z" />
<glyph unicode="&#xc1;" horiz-adv-x="1421" d="M-59 0l1013 1536h211l250 -1536h-352l-53 295h-523l-192 -295h-354zM662 567h315l-49 443q-37 -60 -128.5 -214.5t-137.5 -228.5zM942 1620l328 422l248 -146l-301 -276h-275z" />
<glyph unicode="&#xc2;" horiz-adv-x="1421" d="M-59 0l1013 1536h211l250 -1536h-352l-53 295h-523l-192 -295h-354zM662 567h315l-49 443q-37 -60 -128.5 -214.5t-137.5 -228.5zM680 1620l360 401h277l156 -401h-281l-78 143l-151 -143h-283z" />
<glyph unicode="&#xc4;" horiz-adv-x="1421" d="M-59 0l1013 1536h211l250 -1536h-352l-53 295h-523l-192 -295h-354zM662 567h315l-49 443q-37 -60 -128.5 -214.5t-137.5 -228.5zM760 1772q15 63 71.5 106t124.5 43t104 -43t21 -106q-15 -64 -73.5 -109t-126.5 -45q-67 0 -101.5 44.5t-19.5 109.5zM1147 1772 q15 63 73 106t126 43q67 0 103 -43t21 -106q-15 -64 -73.5 -109t-126.5 -45q-67 0 -102.5 44.5t-20.5 109.5z" />
<glyph unicode="&#xc7;" horiz-adv-x="1574" d="M230.5 515q-7.5 118 23.5 253q55 218 204.5 398.5t356 283t422.5 102.5q174 0 314 -69t227 -201l-277 -221q-37 105 -126 162t-206 57q-99 0 -196.5 -43t-174.5 -114t-134 -163.5t-82 -191.5q-18 -80 -17.5 -155t26.5 -140t68 -114t108 -77t146 -28q99 0 201 44.5 t240 168.5l164 -217q-151 -131 -325 -199.5t-347 -68.5q-130 0 -240.5 39t-189 109.5t-128.5 168.5t-57.5 216zM498 -383l114 117q9 -15 33 -15q22 0 41 15t25 37q5 22 -6 36.5t-33 14.5q-35 0 -56 -31l-90 64l303 268l113 -135l-68 -51q47 -30 67 -83t5 -116 q-23 -92 -106 -157.5t-178 -65.5q-101 0 -164 102z" />
<glyph unicode="&#xc8;" horiz-adv-x="1347" d="M137 0l381 1536h1073l-67 -272h-746l-82 -330h611l-68 -275h-610l-97 -387h783l-68 -272h-1110zM889 1894l321 146l119 -422h-274z" />
<glyph unicode="&#xc9;" horiz-adv-x="1347" d="M137 0l381 1536h1073l-67 -272h-746l-82 -330h611l-68 -275h-610l-97 -387h783l-68 -272h-1110zM971 1638l327 422l248 -145l-301 -277h-274z" />
<glyph unicode="&#xca;" horiz-adv-x="1347" d="M137 0l381 1536h1073l-67 -272h-746l-82 -330h611l-68 -275h-610l-97 -387h783l-68 -272h-1110zM696 1620l361 401h276l156 -401h-281l-78 143l-151 -143h-283z" />
<glyph unicode="&#xcb;" horiz-adv-x="1347" d="M137 0l381 1536h1073l-67 -272h-746l-82 -330h611l-68 -275h-610l-97 -387h783l-68 -272h-1110zM760 1772q15 63 71.5 106t124.5 43t104 -43t21 -106q-15 -64 -73.5 -109t-126.5 -45q-67 0 -101.5 44.5t-19.5 109.5zM1147 1772q15 63 73 106t126 43q67 0 103 -43t21 -106 q-15 -64 -73.5 -109t-126.5 -45q-67 0 -102.5 44.5t-20.5 109.5z" />
<glyph unicode="&#xcc;" horiz-adv-x="636" d="M125 0h328l381 1536h-328zM397 1894l322 146l119 -422h-275z" />
<glyph unicode="&#xcd;" horiz-adv-x="636" d="M125 0h328l381 1536h-328zM555 1620l328 422l247 -146l-301 -276h-274z" />
<glyph unicode="&#xce;" horiz-adv-x="636" d="M125 0h328l381 1536h-328zM301 1620l361 401h276l156 -401h-281l-78 143l-151 -143h-283z" />
<glyph unicode="&#xcf;" horiz-adv-x="636" d="M125 0l381 1536h328l-381 -1536h-328zM375 1772q15 63 71.5 106t124.5 43t104 -43t21 -106q-15 -64 -73.5 -109t-126.5 -45q-67 0 -101.5 44.5t-19.5 109.5zM762 1772q15 63 73 106t126 43q67 0 103 -43t21 -106q-15 -64 -73.5 -109t-126.5 -45q-67 0 -102.5 44.5 t-20.5 109.5z" />
<glyph unicode="&#xd2;" horiz-adv-x="1703" d="M194 515q-8 118 23 253q54 218 204.5 398.5t357 283t421.5 102.5q129 0 240 -39t189.5 -109t129 -168t58.5 -216t-23 -252q-41 -164 -140 -310.5t-230.5 -250.5t-292.5 -164.5t-322 -60.5q-129 0 -239.5 39t-189 109.5t-128.5 168.5t-58 216zM528 614.5 q1 -74.5 27.5 -140t69 -114.5t108 -77.5t144.5 -28.5q100 0 198 43t175 114.5t134 164.5t82 192q18 80 17 154.5t-27 139.5t-68.5 113.5t-108.5 76.5t-146 28q-131 0 -256 -73.5t-212 -190.5t-120 -248q-18 -79 -17 -153.5zM909 1894l322 146l119 -422h-275z" />
<glyph unicode="&#xd3;" horiz-adv-x="1703" d="M194 515q-8 118 23 253q54 218 204.5 398.5t357 283t421.5 102.5q129 0 240 -39t189.5 -109t129 -168t58.5 -216t-23 -252q-41 -164 -140 -310.5t-230.5 -250.5t-292.5 -164.5t-322 -60.5q-129 0 -239.5 39t-189 109.5t-128.5 168.5t-58 216zM528 614.5 q1 -74.5 27.5 -140t69 -114.5t108 -77.5t144.5 -28.5q100 0 198 43t175 114.5t134 164.5t82 192q18 80 17 154.5t-27 139.5t-68.5 113.5t-108.5 76.5t-146 28q-131 0 -256 -73.5t-212 -190.5t-120 -248q-18 -79 -17 -153.5zM1083 1620l328 422l248 -146l-301 -276h-275z" />
<glyph unicode="&#xd4;" horiz-adv-x="1703" d="M194 515q-8 118 23 253q54 218 204.5 398.5t357 283t421.5 102.5q129 0 240 -39t189.5 -109t129 -168t58.5 -216t-23 -252q-41 -164 -140 -310.5t-230.5 -250.5t-292.5 -164.5t-322 -60.5q-129 0 -239.5 39t-189 109.5t-128.5 168.5t-58 216zM528 614.5 q1 -74.5 27.5 -140t69 -114.5t108 -77.5t144.5 -28.5q100 0 198 43t175 114.5t134 164.5t82 192q18 80 17 154.5t-27 139.5t-68.5 113.5t-108.5 76.5t-146 28q-131 0 -256 -73.5t-212 -190.5t-120 -248q-18 -79 -17 -153.5zM838 1620l360 401h277l155 -401h-280l-78 143 l-152 -143h-282z" />
<glyph unicode="&#xd6;" horiz-adv-x="1703" d="M194 515q-8 118 23 253q54 218 204.5 398.5t357 283t421.5 102.5q129 0 240 -39t189.5 -109t129 -168t58.5 -216t-23 -252q-41 -164 -140 -310.5t-230.5 -250.5t-292.5 -164.5t-322 -60.5q-129 0 -239.5 39t-189 109.5t-128.5 168.5t-58 216zM528 614.5 q1 -74.5 27.5 -140t69 -114.5t108 -77.5t144.5 -28.5q100 0 198 43t175 114.5t134 164.5t82 192q18 80 17 154.5t-27 139.5t-68.5 113.5t-108.5 76.5t-146 28q-131 0 -256 -73.5t-212 -190.5t-120 -248q-18 -79 -17 -153.5zM901 1772q15 63 72 106t125 43t104 -43t21 -106 q-15 -64 -74 -109t-127 -45q-67 0 -101.5 44.5t-19.5 109.5zM1288 1772q15 63 73 106t126 43t104 -43t21 -106q-15 -64 -74 -109t-127 -45q-67 0 -102.5 44.5t-20.5 109.5z" />
<glyph unicode="&#xd7;" horiz-adv-x="991" d="M180 338l232 184l-140 185l238 190l137 -184l232 184l141 -190l-234 -185l142 -184l-236 -186l-139 182l-227 -182z" />
<glyph unicode="&#xd9;" horiz-adv-x="1499" d="M198 377q-3 64 3.5 120.5t21.5 114.5l230 924h327l-229 -924q-5 -23 -9 -44.5t-6.5 -59.5t1.5 -69.5t18.5 -67t39.5 -60t70 -41t105 -16.5q83 0 151.5 31t109 72t72 97t43 90.5t19.5 67.5l230 924h329l-229 -924q-15 -58 -36 -114.5t-56 -120.5t-79 -119t-106.5 -107 t-136.5 -88.5t-171.5 -58.5t-207.5 -22t-196.5 22t-141.5 58.5t-92.5 88.5t-54 107t-19.5 119zM848 1894l321 146l119 -422h-274z" />
<glyph unicode="&#xda;" horiz-adv-x="1499" d="M198 377q-3 64 3.5 120.5t21.5 114.5l230 924h327l-229 -924q-5 -23 -9 -44.5t-6.5 -59.5t1.5 -69.5t18.5 -67t39.5 -60t70 -41t105 -16.5q83 0 151.5 31t109 72t72 97t43 90.5t19.5 67.5l230 924h329l-229 -924q-15 -58 -36 -114.5t-56 -120.5t-79 -119t-106.5 -107 t-136.5 -88.5t-171.5 -58.5t-207.5 -22t-196.5 22t-141.5 58.5t-92.5 88.5t-54 107t-19.5 119zM942 1620l328 422l248 -146l-301 -276h-275z" />
<glyph unicode="&#xdb;" horiz-adv-x="1499" d="M198 377q-3 64 3.5 120.5t21.5 114.5l230 924h327l-229 -924q-5 -23 -9 -44.5t-6.5 -59.5t1.5 -69.5t18.5 -67t39.5 -60t70 -41t105 -16.5q83 0 151.5 31t109 72t72 97t43 90.5t19.5 67.5l230 924h329l-229 -924q-15 -58 -36 -114.5t-56 -120.5t-79 -119t-106.5 -107 t-136.5 -88.5t-171.5 -58.5t-207.5 -22t-196.5 22t-141.5 58.5t-92.5 88.5t-54 107t-19.5 119zM721 1620l360 401h277l155 -401h-280l-78 143l-151 -143h-283z" />
<glyph unicode="&#xdc;" horiz-adv-x="1499" d="M198 377q-3 64 3.5 120.5t21.5 114.5l230 924h327l-229 -924q-5 -23 -9 -44.5t-6.5 -59.5t1.5 -69.5t18.5 -67t39.5 -60t70 -41t105 -16.5q83 0 151.5 31t109 72t72 97t43 90.5t19.5 67.5l230 924h329l-229 -924q-15 -58 -36 -114.5t-56 -120.5t-79 -119t-106.5 -107 t-136.5 -88.5t-171.5 -58.5t-207.5 -22t-196.5 22t-141.5 58.5t-92.5 88.5t-54 107t-19.5 119zM797 1772q15 63 71.5 106t124.5 43t104 -43t21 -106q-15 -64 -73.5 -109t-126.5 -45q-67 0 -101.5 44.5t-19.5 109.5zM1184 1772q15 63 72.5 106t125.5 43t104 -43t21 -106 q-15 -64 -73.5 -109t-126.5 -45q-67 0 -102.5 44.5t-20.5 109.5z" />
<glyph unicode="&#xe0;" horiz-adv-x="1079" d="M117 297q40 161 185.5 258.5t352.5 97.5h158q13 57 -17.5 91t-95.5 34q-66 0 -107.5 -14t-84.5 -51l-193 129q104 93 225.5 139.5t243.5 46.5q88 0 156 -18.5t107.5 -49.5t64 -72.5t26 -87.5t-7.5 -93l-176 -707h-303l17 72q-46 -38 -112 -62t-134 -24q-383 0 -305 311z M418 291q-4 -40 23.5 -59t82.5 -19q90 0 145 39.5t64 81.5l23 90h-178q-61 0 -108.5 -38t-51.5 -95zM547 1382l321 146l119 -422h-274z" />
<glyph unicode="&#xe1;" horiz-adv-x="1079" d="M117 297q40 161 185.5 258.5t352.5 97.5h158q13 57 -17.5 91t-95.5 34q-66 0 -107.5 -14t-84.5 -51l-193 129q104 93 225.5 139.5t243.5 46.5q88 0 156 -18.5t107.5 -49.5t64 -72.5t26 -87.5t-7.5 -93l-176 -707h-303l17 72q-46 -38 -112 -62t-134 -24q-383 0 -305 311z M418 291q-4 -40 23.5 -59t82.5 -19q90 0 145 39.5t64 81.5l23 90h-178q-61 0 -108.5 -38t-51.5 -95zM670 1126l327 422l248 -145l-301 -277h-274z" />
<glyph unicode="&#xe2;" horiz-adv-x="1079" d="M117 297q40 161 185.5 258.5t352.5 97.5h158q13 57 -17.5 91t-95.5 34q-66 0 -107.5 -14t-84.5 -51l-193 129q104 93 225.5 139.5t243.5 46.5q88 0 156 -18.5t107.5 -49.5t64 -72.5t26 -87.5t-7.5 -93l-176 -707h-303l17 72q-46 -38 -112 -62t-134 -24q-383 0 -305 311z M418 291q-4 -40 23.5 -59t82.5 -19q90 0 145 39.5t64 81.5l23 90h-178q-61 0 -108.5 -38t-51.5 -95zM418 1106l360 401h277l155 -401h-280l-78 143l-152 -143h-282z" />
<glyph unicode="&#xe4;" horiz-adv-x="1079" d="M117 297q40 161 185.5 258.5t352.5 97.5h158q13 57 -17.5 91t-95.5 34q-66 0 -107.5 -14t-84.5 -51l-193 129q104 93 225.5 139.5t243.5 46.5q88 0 156 -18.5t107.5 -49.5t64 -72.5t26 -87.5t-7.5 -93l-176 -707h-303l17 72q-46 -38 -112 -62t-134 -24q-383 0 -305 311z M418 291q-4 -40 23.5 -59t82.5 -19q90 0 145 39.5t64 81.5l23 90h-178q-61 0 -108.5 -38t-51.5 -95zM508 1303q15 63 72 106t125 43q67 0 103 -43t21 -106q-15 -64 -73.5 -109t-126.5 -45q-67 0 -101.5 44.5t-19.5 109.5zM895 1303q15 63 73 106t126 43t104 -43t21 -106 q-15 -64 -74 -109t-127 -45q-67 0 -102.5 44.5t-20.5 109.5z" />
<glyph unicode="&#xe7;" horiz-adv-x="1105" d="M190 504q36 147 137.5 267t240 187.5t284.5 67.5q256 0 379 -186l-262 -193q-12 70 -63.5 99.5t-114.5 29.5q-96 0 -181.5 -76.5t-115.5 -195.5q-30 -118 17.5 -194.5t143.5 -76.5q160 0 244 129l164 -192q-212 -186 -469 -186q-146 0 -252 67t-147.5 187t-4.5 266z M244 -383l114 117q9 -15 33 -15q22 0 41 15t25 37q5 22 -6 36.5t-33 14.5q-35 0 -56 -31l-90 64l303 268l113 -135l-67 -51q47 -30 66.5 -83t4.5 -116q-23 -92 -106 -157.5t-178 -65.5q-101 0 -164 102z" />
<glyph unicode="&#xe8;" horiz-adv-x="1159" d="M136.5 296.5q-15.5 95.5 15.5 207.5q57 229 233.5 375.5t411.5 146.5q236 0 341.5 -146t47.5 -376l-17 -68h-720q-22 -85 33.5 -144t135.5 -59q77 0 147.5 31.5t119.5 93.5l155 -186q-89 -90 -204 -139t-279 -49q-122 0 -214 39t-141.5 108.5t-65 165zM502 629h397 q6 72 -36 109.5t-128 37.5q-81 0 -141 -39.5t-92 -107.5zM545 1382l321 146l119 -422h-274z" />
<glyph unicode="&#xe9;" horiz-adv-x="1148" d="M136.5 296.5q-15.5 95.5 15.5 207.5q57 229 233.5 375.5t411.5 146.5q236 0 341.5 -146t47.5 -376l-17 -68h-720q-22 -85 33.5 -144t135.5 -59q77 0 147.5 31.5t119.5 93.5l155 -186q-89 -90 -204 -139t-279 -49q-122 0 -214 39t-141.5 108.5t-65 165zM502 629h397 q6 72 -36 109.5t-128 37.5q-81 0 -141 -39.5t-92 -107.5zM709 1126l327 422l248 -145l-301 -277h-274z" />
<glyph unicode="&#xea;" horiz-adv-x="1159" d="M136.5 296.5q-15.5 95.5 15.5 207.5q57 229 233.5 375.5t411.5 146.5q236 0 341.5 -146t47.5 -376l-17 -68h-720q-22 -85 33.5 -144t135.5 -59q77 0 147.5 31.5t119.5 93.5l155 -186q-89 -90 -204 -139t-279 -49q-122 0 -214 39t-141.5 108.5t-65 165zM436 1106l361 401 h276l156 -401h-281l-78 143l-151 -143h-283zM502 629h397q6 72 -36 109.5t-128 37.5q-81 0 -141 -39.5t-92 -107.5z" />
<glyph unicode="&#xeb;" horiz-adv-x="1159" d="M136.5 296.5q-15.5 95.5 15.5 207.5q57 229 233.5 375.5t411.5 146.5q236 0 341.5 -146t47.5 -376l-17 -68h-720q-22 -85 33.5 -144t135.5 -59q77 0 147.5 31.5t119.5 93.5l155 -186q-89 -90 -204 -139t-279 -49q-122 0 -214 39t-141.5 108.5t-65 165zM502 629h397 q6 72 -36 109.5t-128 37.5q-81 0 -141 -39.5t-92 -107.5zM516 1303q15 63 72 106t125 43t104 -43t21 -106q-15 -64 -74 -109t-127 -45q-67 0 -101.5 44.5t-19.5 109.5zM903 1303q15 63 73 106t126 43t104 -43t21 -106q-15 -64 -74 -109t-127 -45q-67 0 -102.5 44.5 t-20.5 109.5z" />
<glyph unicode="&#xec;" horiz-adv-x="538" d="M96 0h303l252 1012h-303zM221 1382l322 146l119 -422h-275z" />
<glyph unicode="&#xed;" horiz-adv-x="538" d="M96 0h303l252 1012h-303zM383 1126l328 422l247 -145l-301 -277h-274z" />
<glyph unicode="&#xee;" horiz-adv-x="538" d="M96 0h303l252 1012h-303zM127 1106l360 401h277l156 -401h-281l-78 143l-151 -143h-283z" />
<glyph unicode="&#xef;" horiz-adv-x="538" d="M96 0l252 1012h303l-252 -1012h-303zM219 1303q15 63 72 106t125 43t104 -43t21 -106q-15 -64 -74 -109t-127 -45q-67 0 -101.5 44.5t-19.5 109.5zM606 1303q15 63 73 106t126 43t104 -43t21 -106q-15 -64 -74 -109t-127 -45q-67 0 -102.5 44.5t-20.5 109.5z" />
<glyph unicode="&#xf2;" horiz-adv-x="1220" d="M172 504q36 147 137.5 267t240 187.5t284.5 67.5q147 0 252.5 -67.5t147 -187.5t5.5 -267q-57 -223 -248.5 -371.5t-415.5 -148.5q-223 0 -341 149t-62 371zM475 504q-30 -118 18 -194.5t144 -76.5q97 0 183 76.5t116 194.5q30 119 -18.5 195.5t-145.5 76.5 q-96 0 -181.5 -76.5t-115.5 -195.5zM555 1382l322 146l118 -422h-274z" />
<glyph unicode="&#xf3;" horiz-adv-x="1220" d="M172 504q36 147 137.5 267t240 187.5t284.5 67.5q147 0 252.5 -67.5t147 -187.5t5.5 -267q-57 -223 -248.5 -371.5t-415.5 -148.5q-223 0 -341 149t-62 371zM475 504q-30 -118 18 -194.5t144 -76.5q97 0 183 76.5t116 194.5q30 119 -18.5 195.5t-145.5 76.5 q-96 0 -181.5 -76.5t-115.5 -195.5zM719 1126l328 422l247 -145l-301 -277h-274z" />
<glyph unicode="&#xf4;" horiz-adv-x="1220" d="M172 504q36 147 137.5 267t240 187.5t284.5 67.5q147 0 252.5 -67.5t147 -187.5t5.5 -267q-57 -223 -248.5 -371.5t-415.5 -148.5q-223 0 -341 149t-62 371zM469 1106l360 401h277l156 -401h-281l-78 143l-151 -143h-283zM475 504q-30 -118 18 -194.5t144 -76.5 q97 0 183 76.5t116 194.5q30 119 -18.5 195.5t-145.5 76.5q-96 0 -181.5 -76.5t-115.5 -195.5z" />
<glyph unicode="&#xf6;" horiz-adv-x="1220" d="M172 504q36 147 137.5 267t240 187.5t284.5 67.5q147 0 252.5 -67.5t147 -187.5t5.5 -267q-57 -223 -248.5 -371.5t-415.5 -148.5q-223 0 -341 149t-62 371zM475 504q-30 -118 18 -194.5t144 -76.5q97 0 183 76.5t116 194.5q30 119 -18.5 195.5t-145.5 76.5 q-96 0 -181.5 -76.5t-115.5 -195.5zM553 1303q15 63 72 106t125 43q67 0 103 -43t21 -106q-15 -64 -73.5 -109t-126.5 -45q-67 0 -101.5 44.5t-19.5 109.5zM940 1303q15 63 73 106t126 43t104 -43t21 -106q-15 -64 -74 -109t-127 -45q-67 0 -102.5 44.5t-20.5 109.5z" />
<glyph unicode="&#xf9;" horiz-adv-x="1169" d="M188 434l146 578h303l-145 -578q-30 -117 -6.5 -169t110.5 -52q195 0 250 221l145 578h303l-252 -1012h-303l23 92q-54 -51 -139.5 -79.5t-157.5 -28.5q-211 0 -273.5 105.5t-3.5 344.5zM571 1382l322 146l119 -422h-275z" />
<glyph unicode="&#xfa;" horiz-adv-x="1169" d="M188 434l146 578h303l-145 -578q-30 -117 -6.5 -169t110.5 -52q195 0 250 221l145 578h303l-252 -1012h-303l23 92q-54 -51 -139.5 -79.5t-157.5 -28.5q-211 0 -273.5 105.5t-3.5 344.5zM653 1126l328 422l248 -145l-301 -277h-275z" />
<glyph unicode="&#xfb;" horiz-adv-x="1169" d="M188 434l146 578h303l-145 -578q-30 -117 -6.5 -169t110.5 -52q195 0 250 221l145 578h303l-252 -1012h-303l23 92q-54 -51 -139.5 -79.5t-157.5 -28.5q-211 0 -273.5 105.5t-3.5 344.5zM442 1106l361 401h276l156 -401h-281l-77 143l-152 -143h-283z" />
<glyph unicode="&#xfc;" horiz-adv-x="1169" d="M188 434l146 578h303l-145 -578q-30 -117 -6.5 -169t110.5 -52q195 0 250 221l145 578h303l-252 -1012h-303l23 92q-54 -51 -139.5 -79.5t-157.5 -28.5q-211 0 -273.5 105.5t-3.5 344.5zM528 1303q15 63 72 106t125 43t104 -43t21 -106q-15 -64 -74 -109t-127 -45 q-67 0 -101.5 44.5t-19.5 109.5zM915 1303q15 63 73 106t126 43t104 -43t21 -106q-15 -64 -74 -109t-127 -45q-67 0 -102.5 44.5t-20.5 109.5z" />
<glyph unicode="&#xff;" horiz-adv-x="1009" d="M-184 -381l149 250q23 -29 56 -46.5t65 -17.5q28 0 58.5 21t57 52.5t55 75t50 82t43.5 80.5q8 16 12 23l-151 873h315l84 -506q61 92 179.5 269t158.5 237h316q-416 -617 -662 -983q-62 -93 -105 -153.5t-95 -126t-94.5 -105t-91.5 -74t-98.5 -49.5t-103.5 -15 q-85 0 -198 113zM457 1303q15 63 71.5 106t124.5 43t104 -43t21 -106q-15 -64 -73.5 -109t-126.5 -45q-67 0 -101.5 44.5t-19.5 109.5zM844 1303q15 63 72.5 106t125.5 43t104 -43t21 -106q-15 -64 -73.5 -109t-126.5 -45q-67 0 -102.5 44.5t-20.5 109.5z" />
<glyph unicode="&#x178;" horiz-adv-x="1411" d="M285 1536h393l252 -621l561 621h393l-866 -930l-150 -606h-329l149 606zM788 1772q15 63 72 106t125 43t104 -43t21 -106q-15 -64 -74 -109t-127 -45q-67 0 -101.5 44.5t-19.5 109.5zM1176 1772q15 63 72.5 106t125.5 43t104 -43t21 -106q-15 -64 -74 -109t-127 -45 q-67 0 -102 44.5t-20 109.5z" />
<glyph unicode="&#x2c6;" d="M406 1106l360 401h276l156 -401h-280l-78 143l-152 -143h-282z" />
<glyph unicode="&#x2000;" horiz-adv-x="1030" />
<glyph unicode="&#x2001;" horiz-adv-x="2060" />
<glyph unicode="&#x2002;" horiz-adv-x="1030" />
<glyph unicode="&#x2003;" horiz-adv-x="2060" />
<glyph unicode="&#x2004;" horiz-adv-x="686" />
<glyph unicode="&#x2005;" horiz-adv-x="515" />
<glyph unicode="&#x2006;" horiz-adv-x="343" />
<glyph unicode="&#x2007;" horiz-adv-x="343" />
<glyph unicode="&#x2008;" horiz-adv-x="257" />
<glyph unicode="&#x2009;" horiz-adv-x="412" />
<glyph unicode="&#x200a;" horiz-adv-x="114" />
<glyph unicode="&#x2010;" horiz-adv-x="1097" d="M236 416l65 258h799l-66 -258h-798z" />
<glyph unicode="&#x2011;" horiz-adv-x="1097" d="M236 416l65 258h799l-66 -258h-798z" />
<glyph unicode="&#x2012;" horiz-adv-x="1097" d="M236 416l65 258h799l-66 -258h-798z" />
<glyph unicode="&#x2013;" horiz-adv-x="1705" />
<glyph unicode="&#x2014;" horiz-adv-x="2281" d="M236 416l154 258h1894l-156 -258h-1892z" />
<glyph unicode="&#x2018;" horiz-adv-x="503" d="M313 1071q15 59 60 107l266 280h172l-143 -252q47 -53 28 -135q-20 -77 -88 -129.5t-147 -52.5q-82 0 -125 53t-23 129z" />
<glyph unicode="&#x2019;" horiz-adv-x="544" d="M268 891l144 250q-47 57 -29 137q19 75 87.5 127.5t147.5 52.5q82 0 125.5 -52.5t24.5 -127.5q-12 -53 -59 -104l-267 -283h-174z" />
<glyph unicode="&#x201c;" horiz-adv-x="987" d="M319 1071q15 59 60 107l266 280h170l-141 -252q47 -53 28 -135q-20 -77 -88 -129.5t-147 -52.5q-82 0 -125 53t-23 129zM797 1071q15 58 61 107l264 280h172l-143 -252q47 -54 29 -135q-20 -76 -88 -129t-146 -53q-83 0 -126 52.5t-23 129.5z" />
<glyph unicode="&#x201d;" horiz-adv-x="929" d="M274 891l144 250q-47 57 -29 137q19 75 87.5 127.5t148.5 52.5q81 0 123.5 -52.5t23.5 -127.5q-12 -57 -59 -104l-264 -283h-175zM750 891l143 250q-46 60 -29 137q19 75 88.5 127.5t147.5 52.5q83 0 125.5 -52t23.5 -128q-12 -53 -59 -104l-266 -283h-174z" />
<glyph unicode="&#x2022;" horiz-adv-x="616" d="M274 762q19 75 88 127.5t150 52.5t123.5 -52.5t23.5 -127.5q-19 -77 -87.5 -130.5t-149.5 -53.5t-124 53.5t-24 130.5z" />
<glyph unicode="&#x2026;" horiz-adv-x="1591" d="M106 166q19 74 88 127t150 53t125 -53t25 -127q-20 -78 -90 -131t-152 -53t-124 53t-22 131zM575 166q19 74 88 127t150 53t125 -53t25 -127q-20 -78 -90 -131t-152 -53t-124 53t-22 131zM1044 166q19 74 88 127t150 53t125 -53t25 -127q-20 -78 -90 -131t-152 -53 t-124 53t-22 131z" />
<glyph unicode="&#x202f;" horiz-adv-x="412" />
<glyph unicode="&#x205f;" horiz-adv-x="515" />
<glyph unicode="&#x20ac;" horiz-adv-x="1654" d="M184 424l56 219h106l4 39h-100l53 219h109q117 290 373 470.5t567 180.5q173 0 313.5 -69t228.5 -201l-276 -221q-73 219 -334 219q-171 0 -311 -104.5t-228 -274.5h586l-53 -219h-598l-2 -39h590l-56 -219h-491q83 -170 307 -170q120 0 235 56t207 157l164 -217 q-152 -131 -326 -199.5t-347 -68.5q-259 0 -411 113.5t-192 328.5h-174z" />
<glyph unicode="&#x25fc;" horiz-adv-x="1013" d="M0 0v1014h1014v-1014h-1014z" />
</font>
</defs>
</svg>
