<?xml version="1.0" standalone="no"?>
<!DOCTYPE svg PUBLIC "-//W3C//DTD SVG 1.1//EN" "http://www.w3.org/Graphics/SVG/1.1/DTD/svg11.dtd" >
<svg xmlns="http://www.w3.org/2000/svg">
<metadata></metadata>
<defs>
<font id="pier_sansitalic" horiz-adv-x="1024" >
<font-face units-per-em="2048" ascent="1526" descent="-522" />
<missing-glyph horiz-adv-x="614" />
<glyph horiz-adv-x="0" />
<glyph horiz-adv-x="682" />
<glyph unicode=" "  horiz-adv-x="614" />
<glyph unicode="&#x09;" horiz-adv-x="614" />
<glyph unicode="&#xa0;" horiz-adv-x="614" />
<glyph unicode="!" horiz-adv-x="661" d="M233 76q10 47 53 80.5t91 33.5q49 0 74 -33t14 -81q-12 -49 -54 -83t-92 -34q-48 0 -73 34t-13 83zM319 381l267 1155h252l-308 -1155h-211z" />
<glyph unicode="&#x22;" horiz-adv-x="866" d="M358 950l136 234q-30 19 -42.5 53t-2.5 76q15 58 67 99.5t111 41.5q61 0 92 -41t16 -100q-12 -51 -45 -84l-262 -279h-70zM733 950l135 234q-30 19 -42.5 53t-2.5 76q15 58 67 99.5t111 41.5q61 0 92.5 -41t16.5 -100q-12 -51 -45 -84l-262 -279h-70z" />
<glyph unicode="#" horiz-adv-x="1980" d="M283 319l51 203h295l178 287h-211l51 203h285l203 329h213l-203 -329h373l204 329h213l-202 -329h295l-52 -203h-368l-178 -287h284l-51 -203h-358l-195 -319h-215l195 319h-373l-195 -319h-215l197 319h-221zM844 522h370l179 287h-373z" />
<glyph unicode="$" horiz-adv-x="1345" d="M160 233l188 152q28 -88 121.5 -146t204.5 -69l135 537q-153 50 -207 78q-141 72 -162 198l-2 16q-9 78 19.5 164t87.5 160q50 65 118.5 112.5t138.5 70.5t120.5 33t95.5 13l63 250h131l-63 -254q134 -17 240.5 -82t175.5 -168l-189 -149q-68 156 -274 209l-125 -496 q153 -49 207 -76q140 -69 168 -192q4 -15 6 -31q1 -8 2 -22.5t-2 -47t-10 -66t-25.5 -78t-46.5 -85.5q-77 -115 -213.5 -188t-302.5 -90l-64 -252h-131l62 246q-151 9 -272 75.5t-195 177.5zM670 1063q2 -17 6 -31t13.5 -26.5t16 -21t24 -19t25.5 -16t32 -15.5t33 -13.5 t38 -15.5l113 457q-60 -6 -128 -35.5t-116 -91.5q-30 -39 -45.5 -86t-11.5 -86zM807 176q184 29 274 162q23 34 34.5 75t9.5 59.5t-1 25.5q-4 35 -18 60t-45 44.5t-56 30.5t-77 31z" />
<glyph unicode="%" horiz-adv-x="1716" d="M356 1186q35 145 162.5 247.5t272.5 102.5q146 0 222.5 -102.5t41.5 -247.5q-37 -145 -165 -246.5t-274 -101.5q-145 0 -221 101.5t-39 246.5zM469 0l946 1536h213l-944 -1536h-215zM541 1186q-17 -67 19 -115.5t104 -48.5q69 0 129 48t77 116t-19.5 117t-105.5 49 q-67 0 -127 -49t-77 -117zM1042 348q35 145 162.5 246.5t272.5 101.5q146 0 222.5 -101.5t41.5 -246.5q-37 -145 -164.5 -247.5t-273.5 -102.5q-145 0 -221.5 102.5t-39.5 247.5zM1227 348q-17 -69 19 -117.5t104 -48.5q69 0 129 48.5t77 117.5q17 68 -19 116t-105 48 q-67 0 -127.5 -48t-77.5 -116z" />
<glyph unicode="&#x26;" horiz-adv-x="1509" d="M186 506q36 146 136 270t235 197q-55 100 -25 233q38 150 166.5 249t276.5 99q149 0 226.5 -98.5t39.5 -249.5q-30 -131 -137 -233q-49 -51 -139 -92q-57 -21 -70 -25l258 -401q65 86 98 163l199 -36q-48 -115 -133 -228q-18 -28 -57 -67l188 -287h-289l-80 123 q-108 -79 -220 -111t-279 -32q-220 2 -335 152t-59 374zM397 506q-33 -136 36.5 -226t201.5 -90q98 0 179.5 19.5t164.5 73.5l-336 520q-88 -42 -155 -122t-91 -175zM739 1186q-17 -64 14.5 -110t90.5 -46q60 0 112.5 45.5t69.5 110.5q15 65 -14.5 110t-89.5 45 q-59 0 -113.5 -45.5t-69.5 -109.5z" />
<glyph unicode="'" horiz-adv-x="512" d="M358 950l136 234q-30 19 -42.5 53t-2.5 76q15 58 67 99.5t111 41.5q61 0 92 -41t16 -100q-12 -51 -45 -84l-262 -279h-70z" />
<glyph unicode="(" horiz-adv-x="753" d="M332 674q169 683 751 1028l52 -166q-21 -13 -43 -28t-70.5 -55.5t-92.5 -86t-101 -118.5t-103.5 -153t-92 -190.5t-75.5 -230.5t-39.5 -231t-2.5 -191t27 -153t42 -118.5t50 -85t43.5 -55.5t29.5 -28l-138 -168q-408 350 -237 1030z" />
<glyph unicode=")" horiz-adv-x="794" d="M-45 -188q22 14 42 28t70 55.5t92.5 85.5t100 117.5t104 153.5t92.5 191t76 231t39 230.5t2 191t-27 153t-42 118t-50 85.5t-43.5 56t-29.5 28l137 166q409 -347 240 -1028q-171 -680 -754 -1030z" />
<glyph unicode="*" horiz-adv-x="655" d="M391 1165l31 123h119l-33 105l123 61l33 -104l86 104l90 -61l-86 -105h118l-30 -123h-119l35 -102l-123 -62l-33 103l-86 -103l-90 62l84 102h-119z" />
<glyph unicode="+" horiz-adv-x="1118" d="M289 420l43 172h278l68 278h172l-68 -278h279l-43 -172h-279l-69 -279h-172l69 279h-278z" />
<glyph unicode="," horiz-adv-x="389" d="M23 -233l135 233q-31 19 -43 53t-2 76q15 59 66.5 100t109.5 41q61 0 93 -41t17 -100q-12 -51 -45 -84l-262 -278h-69z" />
<glyph unicode="-" horiz-adv-x="1097" d="M295 444l43 172h729l-43 -172h-729z" />
<glyph unicode="." horiz-adv-x="534" d="M154 125q13 58 65.5 99.5t112.5 41.5q61 0 92.5 -41t17.5 -100q-15 -61 -67.5 -103t-114.5 -42q-60 0 -90.5 41.5t-15.5 103.5z" />
<glyph unicode="/" horiz-adv-x="737" d="M-20 0l946 1536h213l-944 -1536h-215z" />
<glyph unicode="0" horiz-adv-x="1259" d="M217 291q-20 95 8 207l135 538q38 146 139 265t237.5 186t279.5 67q218 0 333.5 -148.5t63.5 -369.5h2l-135 -538h-2q-58 -222 -247 -370t-408 -148q-107 0 -194 39t-139.5 108t-72.5 164zM438 506q-33 -136 36.5 -226t201.5 -90t246 90t147 226l131 522 q33 136 -36 224.5t-201 88.5q-133 0 -247 -88.5t-147 -224.5z" />
<glyph unicode="1" horiz-adv-x="722" d="M332 0l336 1348h-230l45 188h457l-381 -1536h-227z" />
<glyph unicode="2" horiz-adv-x="1261" d="M164 0l45 188q180 105 399 273q250 192 330 263q37 33 68 64q81 83 123.5 145t60.5 130q28 117 -8 186q-16 30 -43.5 50.5t-55 29t-44 11.5t-25.5 3q-87 4 -178 -51q-119 -68 -187 -200l-194 45q15 32 36 66.5t58 83.5t92.5 97.5t120.5 85.5q160 92 313 86 q19 -1 38.5 -3.5t59.5 -13.5t74 -28t72 -50.5t63 -78.5q69 -130 21 -319q-22 -91 -94 -205q-69 -101 -164 -196q-58 -58 -141 -128t-136 -111.5t-153 -117.5q-85 -66 -164 -117h596l-45 -188h-938z" />
<glyph unicode="3" horiz-adv-x="1167" d="M70 203l227 88q73 -98 211 -98q144 0 259.5 82.5t152.5 230.5q34 136 -39.5 234t-212.5 98h-162l500 508h-474l48 190h845l-512 -522q138 -61 200 -200t20 -308q-37 -148 -141 -269.5t-246 -189t-291 -67.5q-133 0 -234 60t-151 163z" />
<glyph unicode="4" horiz-adv-x="1171" d="M182 408l41 165l942 963h244l-231 -940h122l-49 -188h-123l-100 -408h-227l100 408h-719zM514 596h434l154 616z" />
<glyph unicode="5" horiz-adv-x="1136" d="M147 203l203 127q22 -54 67.5 -89t108.5 -44q126 -19 249.5 56t176.5 210q54 137 2.5 246.5t-176.5 128.5q-102 15 -209 -43q-2 -1 -12 -7t-16 -8h-203l188 756h754l-45 -188h-526l-80 -320q120 36 233 19q103 -14 180 -70.5t115 -139.5t41 -188t-43 -217 q-57 -146 -172.5 -255.5t-258 -160t-280.5 -30.5q-104 15 -180 72t-117 145z" />
<glyph unicode="6" horiz-adv-x="1259" d="M227 506q40 150 144 276l610 754h244l-396 -487q23 4 64 4q143 0 246 -73t141.5 -199t1.5 -275q-57 -224 -247 -374t-410 -150q-144 0 -248.5 67.5t-145.5 188.5t-4 268zM440 506q-33 -135 36.5 -224t201.5 -89t246 89t147 224q35 138 -33 237t-198 99t-247.5 -99 t-152.5 -237z" />
<glyph unicode="7" horiz-adv-x="1187" d="M82 0l1092 1348h-756l45 188h1106l-1237 -1536h-250z" />
<glyph unicode="8" horiz-adv-x="1218" d="M207 504q35 144 131.5 258.5t232.5 189.5q-55 99 -20 234q38 153 168.5 260.5t277.5 107.5q146 0 223.5 -108t39.5 -260q-35 -135 -142 -234q101 -74 140.5 -188.5t3.5 -259.5q-57 -224 -247.5 -374t-410.5 -150q-144 0 -248 67.5t-145 188.5t-4 268zM420 504 q-33 -135 36 -224.5t201 -89.5t246.5 89.5t147.5 224.5q33 136 -36.5 225.5t-201.5 89.5t-246 -89.5t-147 -225.5zM762 1186q-17 -64 13.5 -110t90.5 -46q58 0 112 45.5t71 110.5q15 64 -15.5 109.5t-89.5 45.5q-60 0 -113.5 -45.5t-68.5 -109.5z" />
<glyph unicode="9" horiz-adv-x="1239" d="M358 1030q57 224 247.5 375t410.5 151t336.5 -151t60.5 -375q-37 -146 -141 -276l-613 -754h-241l393 487q-40 -4 -63 -4q-143 0 -246 73.5t-142 199.5t-2 274zM569 1030q-35 -138 33 -236t199 -98q130 0 247 98t152 236q33 136 -36 224.5t-201 88.5q-133 0 -247 -88.5 t-147 -224.5z" />
<glyph unicode=":" horiz-adv-x="493" d="M133 125q13 58 65.5 99.5t112.5 41.5q61 0 93 -41t18 -100q-15 -61 -67.5 -103t-114.5 -42q-60 0 -91 42t-16 103zM297 784q14 59 66 100.5t112 41.5q61 0 93 -41.5t18 -100.5q-15 -61 -68 -103t-115 -42q-60 0 -90.5 41.5t-15.5 103.5z" />
<glyph unicode=";" horiz-adv-x="493" d="M45 -233l135 233q-31 19 -43 53t-2 76q15 59 66.5 100t109.5 41q61 0 93.5 -41t17.5 -100q-12 -51 -45 -84l-262 -278h-70zM297 784q14 59 66 100.5t112 41.5q61 0 93 -41.5t18 -100.5q-15 -61 -68 -103t-115 -42q-60 0 -90.5 41.5t-15.5 103.5z" />
<glyph unicode="&#x3c;" horiz-adv-x="991" d="M248 508l33 129l872 508l-53 -213l-627 -361l447 -358l-52 -213z" />
<glyph unicode="=" horiz-adv-x="1118" d="M248 258l43 172h729l-43 -172h-729zM330 588l43 172h729l-43 -172h-729z" />
<glyph unicode="&#x3e;" horiz-adv-x="991" d="M123 0l51 213l627 358l-447 361l54 213l618 -508l-33 -129z" />
<glyph unicode="?" horiz-adv-x="1124" d="M377 1104q51 157 184 278q128 113 289 154q95 21 158 14q72 -4 135 -28q99 -39 155 -129t50 -217q-8 -104 -62 -203q-22 -44 -49.5 -81.5t-64 -70.5t-57.5 -49.5t-64 -48.5q-42 -29 -68 -49.5t-60 -54t-61 -72.5q-75 -108 -98 -225h-213q38 170 139 313q40 57 78 93 t101.5 79.5t72.5 50.5q44 35 65 52.5t45.5 47t41.5 62.5q29 57 32 121q6 78 -20 129q-46 85 -160 92q-147 0 -254 -105q-69 -66 -110 -174zM483 76q10 47 53 80.5t91 33.5q49 0 74 -33t14 -81q-12 -49 -54 -83t-92 -34q-48 0 -73 34t-13 83z" />
<glyph unicode="@" horiz-adv-x="2004" d="M213 168q-31 174 16 344q38 157 148 322q102 147 244 268q138 114 297 192q159 76 319 101q129 17 262 0q120 -19 209 -60q124 -59 199 -145q111 -120 141 -293q23 -130 -2 -301q-30 -186 -123 -381q-92 -193 -211.5 -296t-234.5 -103q-51 0 -92.5 12.5t-66.5 32.5 t-44 45.5t-25 51t-9 50t3 41.5l2 4q-65 -43 -144 -70.5t-151 -27.5q-143 0 -246 73.5t-141.5 199.5t-1.5 274q36 148 138 273.5t241.5 198.5t282.5 73q136 0 245 -97l15 58h213l-205 -824q-3 -10 -5.5 -22t-6 -35.5t-3.5 -43.5t3.5 -40t15 -31.5t29.5 -11.5q44 0 88.5 22.5 t75.5 52.5t59.5 68t41.5 60.5t21 38.5q79 166 111 344q53 322 -119 512q-41 46 -94 80.5t-100.5 53.5t-105 30.5t-95.5 15t-85 2.5t-60 -2.5t-33 -3.5q-144 -22 -279 -88q-141 -67 -262 -168q-127 -109 -211 -232q-92 -143 -125 -276q-42 -145 -14 -295q20 -133 104 -250 q88 -119 224 -184q137 -67 315 -70q62 0 145 17q63 14 134 47l30 -111q-73 -34 -164 -55q-86 -21 -170 -21h-6q-197 3 -362 80q-149 72 -252 209q-97 132 -123 291zM774 502q-40 -155 25 -264t194 -109q86 0 171 49t145 133q67 86 94 191q24 104 2 190q-21 83 -80.5 132.5 t-144.5 49.5q-129 0 -248.5 -109t-157.5 -263z" />
<glyph unicode="A" horiz-adv-x="1421" d="M0 0l1012 1536h139l250 -1536h-246l-55 401h-604l-250 -401h-246zM614 590h461l-78 606z" />
<glyph unicode="B" horiz-adv-x="1433" d="M205 0l381 1536h608q156 0 236 -114q54 -76 54 -174q0 -48 -14 -101q-41 -167 -188 -285q77 -64 105 -166q14 -50 14 -105q0 -57 -15 -120q-50 -195 -217 -333t-356 -138h-608zM477 188h381q95 0 183.5 83t117.5 200q11 45 11 85q0 62 -26 112q-43 82 -134 86h-11h-381z M666 942h381h6q59 4 114.5 64.5t75.5 140.5q9 35 9 66q0 41 -16 75q-27 60 -87 60h-381z" />
<glyph unicode="C" horiz-adv-x="1574" d="M270 514q-1 23 -2 47q0 98 25 207q54 218 204 399t355 284t418 103q170 0 301.5 -59t208.5 -176l-187 -150q-42 95 -141.5 146t-228.5 51q-116 0 -232 -49.5t-209.5 -131.5t-163 -191t-98.5 -226q-19 -74 -19 -149q0 -70 16 -135q16 -67 51 -124.5t84 -100t119 -67 t153 -24.5q123 0 254 49t213 145l110 -149q-133 -115 -293.5 -174t-330.5 -59q-128 0 -237.5 39t-187 110t-126 169t-56.5 216z" />
<glyph unicode="D" horiz-adv-x="1622" d="M164 0l381 1536h598q100 0 189 -28t157 -78t119.5 -120.5t76.5 -155.5t29 -183v-25q0 -87 -24 -178q-39 -156 -132.5 -298t-218 -244.5t-276 -163.5t-301.5 -62h-598zM436 188h367q213 0 403 166q197 175 256 414q20 81 20 157q0 35 -4 67q-13 106 -67 188 q-52 82 -134 125t-183 43h-367z" />
<glyph unicode="E" horiz-adv-x="1347" d="M184 0l381 1536h1022l-45 -188h-794l-115 -455h649l-47 -191h-649l-129 -514h833l-45 -188h-1061z" />
<glyph unicode="F" horiz-adv-x="1306" d="M184 0l381 1536h1020l-45 -188h-792l-121 -480h649l-47 -188h-649l-168 -680h-228z" />
<glyph unicode="G" horiz-adv-x="1785" d="M248 514q-1 24 -1 47q0 98 25 207q54 218 204.5 399t355.5 284t417 103q172 0 303.5 -59t206.5 -176l-186 -150q-63 97 -152 147t-219 50q-161 0 -307.5 -80t-248.5 -215.5t-144 -302.5q-19 -74 -19 -149q0 -70 15 -135q16 -67 50.5 -124.5t83.5 -100t118.5 -67 t152.5 -24.5q246 0 426 158q168 145 246 346h-391l47 188h624l-213 -860h-227l47 197q-130 -107 -286 -162t-320 -55q-127 0 -236.5 39t-187 110t-127 169t-57.5 216z" />
<glyph unicode="H" horiz-adv-x="1505" d="M143 0l381 1536h228l-168 -674h723l168 674h227l-381 -1536h-227l168 674h-723l-168 -674h-228z" />
<glyph unicode="I" horiz-adv-x="636" d="M184 0l381 1536h228l-381 -1536h-228z" />
<glyph unicode="J" horiz-adv-x="1265" d="M222 337q2 70 22 148h227q-7 -25 -11.5 -47t-7 -55.5t1 -61t16.5 -57t36.5 -50t64 -33.5t95.5 -13q43 0 81 8.5t67 20.5t55 33.5t43.5 39t34 46t25 46t19 47t13.5 40.5t10 36l260 1051h229l-260 -1051q-20 -78 -53 -148t-86 -136.5t-121 -114.5t-162 -77t-203 -29 t-189 29t-124 77t-65 114q-18 61 -18 125v12z" />
<glyph unicode="K" horiz-adv-x="1687" d="M205 0l381 1536h227l-174 -700l993 700h334l-913 -635l532 -901h-268l-447 762l-297 -193l-141 -569h-227z" />
<glyph unicode="L" horiz-adv-x="1226" d="M143 0l381 1536h228l-336 -1348h774l-45 -188h-1002z" />
<glyph unicode="M" horiz-adv-x="2115" d="M164 0l381 1536h30h244l314 -1188l903 1188h243h33l-381 -1536h-227l287 1153l-879 -1153h-129l-305 1153l-287 -1153h-227z" />
<glyph unicode="N" horiz-adv-x="1716" d="M205 0l381 1536h274l522 -1223l304 1223h227l-381 -1536h-275l-520 1223l-303 -1223h-229z" />
<glyph unicode="O" horiz-adv-x="1703" d="M228 514q-1 23 -1 47q0 98 25 207q54 219 204.5 400t355 283.5t417.5 102.5q127 0 236.5 -39t186.5 -109.5t126.5 -168.5t57.5 -216q1 -23 1 -47q0 -98 -25 -206q-41 -164 -139 -310.5t-229 -251t-290 -165.5t-318 -61q-127 0 -236.5 39t-187 110t-127 169t-57.5 216z M460 586q2 -88 34.5 -164.5t84 -132.5t130.5 -88.5t174 -32.5q119 0 236 50t209 132.5t160 191.5t97 226q19 86 19 166v16q-2 88 -34 163.5t-83.5 131.5t-130.5 88.5t-174 32.5q-118 0 -235 -50t-209.5 -132.5t-161 -191t-97.5 -224.5q-19 -87 -19 -167v-15z" />
<glyph unicode="P" horiz-adv-x="1445" d="M184 0l381 1536h598q110 -1 200 -45.5t143 -120.5q52 -78 71 -180q7 -39 8 -79q0 -67 -20 -140q-38 -153 -143 -283t-248.5 -205.5t-290.5 -76.5h-369l-100 -406h-230zM561 594h365q131 0 251 110.5t160 266.5q13 58 13 109q0 43 -9 81q-19 84 -80 135.5t-147 51.5h-364z " />
<glyph unicode="Q" horiz-adv-x="1830" d="M290 514q-2 24 -2 47q0 98 25 207q54 219 204 400t355 283.5t418 102.5q127 0 236.5 -39t187 -109.5t127 -168.5t57.5 -216q1 -23 1 -47q0 -97 -25 -206q-36 -147 -119.5 -282t-200.5 -244l156 -228l-170 -129l-156 228q-211 -133 -487 -133q-128 0 -237.5 39t-187 110 t-126.5 169t-56 216zM522 618q0 -70 16 -135q15 -67 49.5 -124.5t84 -100t119.5 -66.5t153 -24q198 0 340 92l-168 250l170 129l160 -240q149 165 199 369q20 89 20 171q0 6 -1 11q-1 88 -33.5 164t-84 132t-130 88t-173.5 32q-119 0 -235.5 -49.5t-209 -132t-160.5 -191 t-97 -225.5q-19 -75 -19 -150z" />
<glyph unicode="R" horiz-adv-x="1425" d="M164 0l110 446l48 189l178 713l45 188h227h369q111 -1 201.5 -42.5t144 -114.5t73.5 -173q8 -38 7 -79q0 -65 -19 -136q-42 -172 -165.5 -306.5t-288.5 -197.5l209 -487h-242l-191 446h-368l-111 -446h-227zM549 635h366q133 0 250.5 101t155.5 255q14 56 14 105 q-1 86 -43 150q-66 102 -198 102h-367z" />
<glyph unicode="S" horiz-adv-x="1386" d="M160 233l188 152q30 -94 135 -155.5t230 -61.5q253 3 368 170q23 34 34.5 75t9.5 59.5t-1 25.5q-3 27 -11.5 48.5t-27.5 39t-34.5 29t-50 25.5t-54 20.5t-65.5 21.5q-25 8 -37 12q-14 5 -53 17t-55.5 17.5t-52 18.5t-52.5 21.5t-46.5 24t-45 29t-36 33.5t-32 40.5t-21 47 t-12.5 56.5q-2 19 -2 38q0 61 22 126q28 86 87 160q49 63 118 110t127.5 69t123.5 35t94 15t51 2q166 0 296 -67.5t210 -188.5l-189 -149q-41 95 -139.5 156t-224.5 61q-8 0 -21 -1t-50 -8t-70.5 -19t-74 -39t-69.5 -64q-29 -39 -45 -86q-12 -37 -13 -70q0 -8 1 -16 q3 -31 18 -55.5t31.5 -40t54.5 -33t61 -25t78 -25.5q21 -7 31 -10q17 -5 54 -17t56 -18t53 -18.5t53 -22t47.5 -24.5t45.5 -29t37.5 -34.5t32 -41.5t21.5 -48.5t14 -57.5q1 -8 2 -22.5t-2 -47t-10 -66t-25.5 -78t-46.5 -85.5q-89 -130 -252.5 -206t-357.5 -78 q-165 0 -296 67t-210 186z" />
<glyph unicode="T" horiz-adv-x="1265" d="M336 1348l45 188h1178l-46 -188h-475l-336 -1348h-227l336 1348h-475z" />
<glyph unicode="U" horiz-adv-x="1499" d="M268 370q-1 19 -1 38q0 44 5 82q7 56 21 112l231 934h228l-232 -934q-7 -26 -11.5 -53.5t-6.5 -72.5q-1 -14 -1 -28q-1 -30 3 -56q6 -39 25 -81.5t51.5 -73t89.5 -50t133 -19.5t143 20t113.5 49.5t86.5 73t64.5 81.5t44.5 84t28 72.5t15 53.5l232 934h227l-231 -934 q-14 -57 -34.5 -112.5t-54.5 -119t-77 -118t-104 -105.5t-132.5 -87.5t-166 -58t-201.5 -21.5t-191 21.5t-137.5 58t-89.5 87.5t-51.5 105t-18.5 118z" />
<glyph unicode="V" horiz-adv-x="1306" d="M354 1536h244l133 -1130l692 1130h244l-973 -1536h-129z" />
<glyph unicode="W" horiz-adv-x="2109" d="M381 1536h242l98 -1083l655 1083h117l119 -1083l635 1083h243l-927 -1536h-117l-123 1079l-659 -1079h-117z" />
<glyph unicode="X" horiz-adv-x="1404" d="M14 0l740 782l-338 754h246l253 -575l545 575h264l-725 -770l342 -766h-235l-268 590l-557 -590h-267z" />
<glyph unicode="Y" horiz-adv-x="1411" d="M360 1536h277l291 -717l649 717h276l-862 -926l-151 -610h-228l152 610z" />
<glyph unicode="Z" horiz-adv-x="1460" d="M139 0l58 233l1155 1115h-877l45 188h1010h106l-57 -233l-1157 -1115h878l-45 -188h-1116z" />
<glyph unicode="[" horiz-adv-x="620" d="M76 -352l557 2240h457l-48 -188h-229l-463 -1864h230l-48 -188h-456z" />
<glyph unicode="\" horiz-adv-x="737" d="M360 1536h213l185 -1536h-215z" />
<glyph unicode="]" horiz-adv-x="620" d="M-86 -352l47 188h227l463 1864h-229l47 188h457l-557 -2240h-455z" />
<glyph unicode="^" d="M473 1196l303 340h234l135 -340h-176l-111 197l-209 -197h-176z" />
<glyph unicode="_" d="M-74 -274l43 172h1035l-43 -172h-1035z" />
<glyph unicode="`" d="M672 1434l223 102l94 -340h-176z" />
<glyph unicode="a" horiz-adv-x="1073" d="M135 297q22 91 70.5 159t113.5 107t135.5 57.5t147.5 18.5h287l18 68q5 22 5.5 40t-6.5 40t-23.5 36.5t-51 24.5t-83.5 10q-71 0 -143.5 -35t-131.5 -96l-113 131q95 82 206.5 128t224.5 46q71 0 128 -13.5t94.5 -37.5t64 -55.5t36.5 -67.5t12 -75v-14q0 -31 -8 -62 l-176 -707h-211l27 111q-66 -68 -155.5 -98.5t-164.5 -30.5q-171 0 -254 89q-59 63 -59 150q0 36 10 76zM346 289q-2 -12 -2 -23q0 -52 36 -79q44 -33 130 -33q133 0 208 49t91 112l37 152h-258q-97 0 -164.5 -47t-77.5 -131z" />
<glyph unicode="b" horiz-adv-x="1218" d="M129 0l381 1536h211l-150 -604q62 42 152.5 70t163.5 28q107 0 191.5 -40t133 -110.5t64.5 -166.5q5 -33 5 -69q0 -66 -19 -140q-57 -226 -238 -375t-399 -149q-74 0 -147 26t-120 70l-18 -76h-211zM418 313q20 -80 80 -120.5t149 -40.5q132 0 249 100t155 252 q14 55 14 104q0 84 -43 148q-67 100 -199 100q-89 0 -170 -40t-141 -120q-69 -92 -92 -192q-14 -55 -14 -104q0 -46 12 -87z" />
<glyph unicode="c" horiz-adv-x="1056" d="M186 504q36 147 137 268.5t239 189.5t282 68q247 0 348 -153l-178 -132q-54 111 -213 111q-133 0 -249.5 -99.5t-154.5 -252.5q-14 -55 -14 -103q0 -85 43 -149q67 -100 199 -100q161 0 270 112l113 -131q-178 -153 -426 -153q-220 0 -336 150q-78 101 -78 236 q0 65 18 138z" />
<glyph unicode="d" horiz-adv-x="1255" d="M207 504q56 226 237.5 376t399.5 150q74 0 150 -28t116 -70l150 604h213l-381 -1536h-213l18 76q-72 -45 -156 -70.5t-159 -25.5q-218 0 -325 149q-70 97 -70 227q0 69 20 148zM420 504q-14 -56 -14 -104q0 -84 42 -148q66 -100 197 -100q89 0 170 40.5t141 120.5 q67 90 93 191q13 54 13 104q0 46 -11 88q-20 80 -80.5 120t-149.5 40q-131 0 -247 -99.5t-154 -252.5z" />
<glyph unicode="e" horiz-adv-x="1159" d="M170 295q-5 31 -5 64q0 68 21 145q56 230 232 378t407 148q397 0 396 -367q0 -29 -2 -61q-2 -37 -17 -98l-18 -76h-797q-8 -36 -8 -67q0 -29 7 -55q15 -52 54 -86t87.5 -51t99.5 -17q73 0 154 36t139 97l112 -131q-170 -174 -448 -174q-121 0 -211.5 39.5t-139 109.5 t-63.5 166zM434 602h572q9 37 9 69q0 71 -45 117q-66 68 -188 68q-119 0 -220 -71.5t-128 -182.5z" />
<glyph unicode="f" horiz-adv-x="761" d="M225 0l209 840h-123l43 172h123l25 102q34 131 54 179t81 118q125 145 330 145q69 0 112 -30l-41 -164q-37 19 -77 19q-33 0 -68 -13q-82 -33 -114.5 -80t-65.5 -174l-25 -102h264l-43 -172h-264l-209 -840h-211z" />
<glyph unicode="g" horiz-adv-x="1245" d="M72 -387l178 131q28 -62 82 -97.5t125 -35.5q130 0 250.5 109.5t158.5 263.5l23 94q-61 -41 -151.5 -68.5t-164.5 -27.5q-218 0 -325 149q-69 97 -69 227q0 69 20 148q57 226 238 376t399 150q74 0 146.5 -26.5t119.5 -71.5l20 78h211l-256 -1028q-37 -148 -139 -273.5 t-241.5 -198.5t-282.5 -73q-112 0 -200 46.5t-142 127.5zM410 506q-14 -55 -14 -104q0 -84 42 -148q67 -100 199 -100q89 0 170 40.5t141 120.5q68 87 92 191q14 55 14 107q0 44 -10 85q-21 80 -81.5 120t-149.5 40q-133 0 -249 -99.5t-154 -252.5z" />
<glyph unicode="h" horiz-adv-x="1222" d="M143 0l381 1536h211l-170 -688q38 67 133.5 120.5t188.5 59.5q28 2 53 2q174 0 254 -95q54 -66 55 -179q0 -75 -24 -172l-146 -584h-211l140 563q21 79 21 137q-1 54 -19 88q-38 70 -166 70q-141 0 -231 -86.5t-124 -228.5l-135 -543h-211z" />
<glyph unicode="i" horiz-adv-x="538" d="M154 0l252 1012h210l-251 -1012h-211zM487 1382q12 47 54.5 81t89.5 34q49 1 75 -33q17 -23 17 -53q0 -14 -4 -29q-12 -49 -54 -82.5t-92 -33.5q-48 0 -73 34q-17 23 -17 52q0 14 4 30z" />
<glyph unicode="j" horiz-adv-x="610" d="M-135 -385l41 164q37 -19 76 -19q33 0 67 13q81 33 116.5 88t67.5 186l242 965h211l-242 -965q-33 -136 -55.5 -191t-83.5 -126q-124 -146 -328 -146q-67 0 -112 31zM559 1382q12 48 54.5 81.5t91.5 33.5q47 0 73 -34q17 -23 17 -52q0 -14 -4 -29q-12 -49 -54 -82.5 t-90 -33.5q-50 0 -75 34q-17 22 -17 52q0 14 4 30z" />
<glyph unicode="k" horiz-adv-x="1142" d="M143 0l381 1536h213l-217 -879l496 355h327l-569 -394l348 -618h-227l-279 502l-161 -107l-99 -395h-213z" />
<glyph unicode="l" horiz-adv-x="540" d="M143 0l392 1575h213l-392 -1575h-213z" />
<glyph unicode="m" horiz-adv-x="1845" d="M117 0l252 1012h211l-41 -164q39 68 129.5 121t181.5 59q27 2 51 2q266 0 297 -217q55 98 154.5 153t199.5 62q26 2 51 2q175 0 251 -95q51 -64 50 -175q0 -77 -24 -176l-145 -584h-211l139 563q22 84 22 143q0 50 -15 82q-34 70 -161 70q-239 0 -331 -274l-146 -584 h-213l2 8l140 555q22 84 22 143q0 50 -15 82q-34 70 -161 70q-140 0 -224.5 -85.5t-119.5 -229.5l-135 -543h-211z" />
<glyph unicode="n" horiz-adv-x="1216" d="M123 0l252 1012h211l-41 -164q38 67 133.5 120.5t187.5 59.5q28 2 53 2q175 0 255 -95q54 -66 54 -179q0 -75 -24 -172l-145 -584h-211l139 563q21 79 21 137q0 54 -18 88q-38 70 -167 70q-141 0 -230.5 -86.5t-123.5 -228.5l-135 -543h-211z" />
<glyph unicode="o" horiz-adv-x="1236" d="M207 504q36 148 137 269t238.5 189t281.5 68t248 -68t144 -189q21 -64 21 -136q0 -64 -17 -133q-57 -224 -247.5 -374t-410.5 -150t-336 150q-78 101 -77 236q0 65 18 138zM418 504q-14 -55 -14 -104q0 -85 42 -148q66 -100 198.5 -100t249.5 100t155 252q14 55 14 104 q0 84 -43 148q-67 100 -199 100q-133 0 -249 -99.5t-154 -252.5z" />
<glyph unicode="p" horiz-adv-x="1214" d="M-27 -522l381 1534h211l-20 -80q70 45 155.5 71.5t159.5 26.5q143 0 242.5 -68.5t135.5 -188.5q18 -59 18 -125q0 -68 -19 -144q-57 -226 -239 -375t-400 -149q-74 0 -150 27.5t-116 68.5l-150 -598h-209zM391 313q20 -80 80.5 -120.5t149.5 -40.5q132 0 248.5 100 t154.5 252q14 56 14 104q0 85 -42 148q-67 100 -199 100q-89 0 -170.5 -40.5t-141.5 -121.5q-67 -90 -90 -190q-14 -56 -14 -107q0 -44 10 -84z" />
<glyph unicode="q" horiz-adv-x="1255" d="M207 504q56 226 237.5 376t399.5 150q75 0 145.5 -26t120.5 -72l20 80h213l-382 -1534h-213l149 598q-62 -41 -151 -68.5t-164 -27.5q-218 0 -325 149q-70 97 -70 227q0 69 20 148zM418 504q-14 -55 -14 -104q0 -84 42 -148q67 -100 199 -100q187 0 311 161q67 90 93 191 q13 54 13 104q0 45 -11 86q-21 81 -81 121.5t-149 40.5q-133 0 -249 -99.5t-154 -252.5z" />
<glyph unicode="r" horiz-adv-x="731" d="M123 0l252 1012h211l-37 -144q37 70 120.5 116t174.5 46q87 0 135 -31l-86 -165q-11 7 -38 14.5t-52 7.5q-125 0 -216.5 -104t-131.5 -267l-121 -485h-211z" />
<glyph unicode="s" horiz-adv-x="962" d="M123 133l170 137q58 -110 203 -110q75 0 138 25t91 65q10 16 15.5 35t6.5 32l1 13q-2 10 -6 18.5t-11.5 15.5t-15 12.5t-21 11t-23 9t-27 8t-28 7t-31.5 7t-32 7.5q-49 12 -78 20t-68.5 25.5t-62.5 37.5t-41.5 52.5t-23.5 73.5q-2 15 -2 30q0 101 77 201q43 55 102 91.5 t116.5 50.5t88.5 18t52 4q106 0 191.5 -38.5t139.5 -110.5l-172 -138q-56 107 -204 107q-5 0 -14.5 -0.5t-33 -4.5t-44.5 -11t-45 -21t-39 -33q-29 -37 -30 -76q0 -4 1 -8q2 -19 16 -34t39.5 -25.5t51 -18t62.5 -16.5q11 -3 17 -4q32 -8 43.5 -10.5t41 -11t42 -14t37 -16 t36 -19.5t29 -24t26 -30.5t16 -36t10.5 -43.5q1 -9 1 -25.5t-3 -47t-17.5 -69t-38.5 -73.5q-63 -91 -175.5 -144.5t-243.5 -53.5h-2q-104 0 -188.5 40.5t-139.5 112.5z" />
<glyph unicode="t" horiz-adv-x="782" d="M257 192q-2 14 -3 32q0 18 3 40q5 44 11 72.5t25 105.5l100 398h-123l43 172h123l80 319h211l-80 -319h264l-43 -172h-264l-100 -398q-26 -99 -27 -156q1 -15 3 -27q8 -58 73 -91q28 -13 61 -13q40 0 88 19l-40 -164q-58 -30 -130 -30q-203 0 -256 145q-14 38 -19 67z " />
<glyph unicode="u" horiz-adv-x="1208" d="M215 428l145 584h211l-141 -563q-21 -79 -21 -137q1 -54 19 -88q38 -70 166 -70q141 0 230.5 86t125.5 229l135 543h211l-252 -1012h-210l38 164q-38 -68 -132.5 -121t-186.5 -59q-28 -2 -54 -2q-177 0 -255 95q-54 65 -54 178q0 76 25 173z" />
<glyph unicode="v" horiz-adv-x="907" d="M170 1012h213l102 -707l455 707h211l-676 -1012h-129z" />
<glyph unicode="w" horiz-adv-x="1521" d="M221 1012h213l64 -707l364 623l49 84h152l6 -84l57 -623l416 707h211l-637 -1012h-129l-90 655l-412 -655h-129z" />
<glyph unicode="x" horiz-adv-x="976" d="M4 0l502 520l-230 492h222l143 -338l309 338h242l-485 -506l233 -506h-213l-152 352l-329 -352h-242z" />
<glyph unicode="y" horiz-adv-x="1030" d="M-193 -483l109 184q9 -11 30 -24t38 -17q13 -4 26 -4q25 0 53 13q43 20 80 55.5t82 95t75.5 105.5t70.5 110q31 50 45 71l-156 906h213l113 -664l442 664h213q-409 -607 -678 -1012q-95 -141 -162.5 -230.5t-141.5 -167t-141 -112.5t-136 -35q-87 0 -175 62z" />
<glyph unicode="z" horiz-adv-x="950" d="M80 0l47 193l670 647h-508l43 172h727l-45 -181l-676 -659h510l-41 -172h-727z" />
<glyph unicode="{" horiz-adv-x="964" d="M328 664l30 106l23 104q1 0 3.5 1.5t4.5 1.5q138 -6 215 53q24 18 43.5 44.5t31.5 50t25.5 67t19.5 67.5t19 78q39 154 74 238q60 146 176 239q170 135 430 129l-53 -213q-176 3 -264 -67q-53 -42 -88 -125q-27 -59 -62 -199q-12 -53 -19.5 -82.5t-23 -80t-32 -84.5 t-41 -76t-57 -77t-72.5 -65q-2 -1 -3.5 -2.5t-2.5 -1.5l4 -4q21 -26 34.5 -58t20.5 -61t6 -69t-3 -67t-11.5 -72.5t-15 -69t-17.5 -70.5q-35 -140 -39 -199q-6 -81 27 -125q55 -70 229 -67l-53 -213h-21q-240 0 -344 129q-69 93 -57 239q5 64 45 238q17 65 24.5 98.5t14 80 t0 77t-24.5 51.5q-50 59 -188 56h-8z" />
<glyph unicode="}" horiz-adv-x="964" d="M-76 -307l53 213q175 -3 263 67q55 46 88 125q25 54 61 199q12 52 20 82.5t23 80t32 84.5t41 76.5t57 77t73 66.5q2 0 6 4l-4 4q-21 26 -34.5 57.5t-20.5 60t-6 68.5t3 67t11.5 72.5t15 69t17.5 70.5q35 140 39 199q6 83 -27 125q-55 70 -229 67l53 213q262 6 364 -129 q70 -94 58 -239q-6 -84 -45 -238q-17 -65 -24.5 -97.5t-14.5 -79.5t-0.5 -77.5t24.5 -52.5q51 -60 189 -54q2 0 4.5 -1t3.5 -1l-31 -104l-22 -106h-9q-138 3 -215 -56q-29 -21 -51 -51t-38.5 -77.5t-25 -79.5t-24.5 -99q-41 -160 -74 -238q-60 -146 -176 -239 q-167 -129 -407 -129h-21z" />
<glyph unicode="&#xa3;" horiz-adv-x="1144" d="M104 0q12 48 46.5 102t66 89.5t90.5 97.5q56 60 86 94t64 79.5t51 84.5h-270l32 131h267q0 9 -5 39q-35 205 16.5 367.5t194.5 297.5q57 55 123 93t124.5 53.5t89.5 21t57 6.5q154 6 272 -86l-164 -178q-61 51 -153 51q-15 0 -41.5 -4.5t-80 -27.5t-93.5 -62 q-33 -31 -46.5 -45.5t-30.5 -39t-28 -52.5q-53 -127 -22 -313q10 -63 4 -121h356l-33 -131h-354q-22 -62 -57 -119q-59 -100 -195 -240h616l-45 -188h-938z" />
<glyph unicode="&#xa5;" horiz-adv-x="1329" d="M264 287l33 131h377l35 139h-377l33 131h323l-369 848h277l291 -717l649 717h276l-790 -848h315l-32 -131h-369l-35 -139h369l-33 -131h-369l-69 -287h-228l70 287h-377z" />
<glyph unicode="&#xa8;" d="M571 1382q12 47 54.5 81t89.5 34q49 0 74.5 -33.5t13.5 -81.5q-12 -49 -54 -82.5t-92 -33.5q-48 0 -73 33.5t-13 82.5zM909 1382q12 47 54.5 81t89.5 34q49 0 74.5 -33.5t13.5 -81.5q-12 -49 -54 -82.5t-92 -33.5q-48 0 -73 33.5t-13 82.5z" />
<glyph unicode="&#xab;" horiz-adv-x="870" d="M373 1092q11 43 49 84l260 276h68l-132 -233q28 -18 39.5 -52t1.5 -75q-13 -60 -65 -102t-111 -42q-61 0 -92.5 41.5t-17.5 102.5zM752 1092q11 43 49 84l260 276h67l-131 -233q28 -18 39.5 -52t1.5 -75q-13 -60 -65 -102t-111 -42q-61 0 -92.5 41.5t-17.5 102.5z" />
<glyph unicode="&#xad;" horiz-adv-x="1097" d="M295 444l43 172h729l-43 -172h-729z" />
<glyph unicode="&#xb0;" horiz-adv-x="647" d="M375 1264q29 114 124.5 193t202.5 79q109 0 166.5 -79.5t28.5 -192.5q-28 -111 -124 -190t-204 -79q-107 0 -164.5 79.5t-29.5 189.5zM477 1264q-19 -73 15.5 -129t97.5 -56q64 0 125 55.5t80 129.5q20 76 -14 132t-99 56q-63 0 -124 -56t-81 -132z" />
<glyph unicode="&#xb1;" d="M184 0l41 172h729l-41 -172h-729zM324 561l43 172h278l70 279h172l-70 -279h279l-43 -172h-279l-69 -278h-173l70 278h-278z" />
<glyph unicode="&#xb4;" d="M578 1196l262 340l174 -102l-260 -238h-176z" />
<glyph unicode="&#xb7;" horiz-adv-x="534" d="M154 125q13 58 65.5 99.5t112.5 41.5q61 0 92.5 -41t17.5 -100q-15 -61 -67.5 -103t-114.5 -42q-60 0 -90.5 41.5t-15.5 103.5z" />
<glyph unicode="&#xb8;" horiz-adv-x="444" d="M-31 -414l117 117q13 -22 39 -22q22 0 42 18.5t26 44.5q7 26 -4 44.5t-33 18.5q-28 0 -50 -22l-90 63l222 195l51 -63l-101 -80q71 -5 106.5 -58.5t16.5 -128.5q-20 -77 -86 -131.5t-141 -54.5t-115 59z" />
<glyph unicode="&#xbb;" horiz-adv-x="868" d="M358 950l136 234q-30 19 -42.5 53t-2.5 76q15 58 67 99.5t111 41.5q61 0 92 -41t16 -100q-12 -51 -45 -84l-262 -279h-70zM735 950l135 234q-30 19 -42.5 53t-2.5 76q15 58 67.5 99.5t111.5 41.5q61 0 92 -41t16 -100q-12 -51 -45 -84l-262 -279h-70z" />
<glyph unicode="&#xc0;" horiz-adv-x="1441" d="M20 0l1012 1536h139l250 -1536h-245l-56 401h-604l-250 -401h-246zM635 590h461l-78 606zM895 1937l225 103l92 -340h-176z" />
<glyph unicode="&#xc1;" horiz-adv-x="1441" d="M20 0l1012 1536h139l250 -1536h-245l-56 401h-604l-250 -401h-246zM635 590h461l-78 606zM1075 1700l264 340l172 -103l-260 -237h-176z" />
<glyph unicode="&#xc2;" horiz-adv-x="1441" d="M20 0l1012 1536h139l250 -1536h-245l-56 401h-604l-250 -401h-246zM635 590h461l-78 606zM809 1700l305 340h234l133 -340h-176l-111 196l-209 -196h-176z" />
<glyph unicode="&#xc4;" horiz-adv-x="1441" d="M20 0l1012 1536h139l250 -1536h-245l-56 401h-604l-250 -401h-246zM635 590h461l-78 606zM891 1817q10 47 52.5 80.5t90.5 33.5q49 0 74 -33t14 -81q-12 -49 -54.5 -83t-92.5 -34q-47 0 -71.5 34t-12.5 83zM1229 1817q10 47 52.5 80.5t90.5 33.5q49 0 74 -33t14 -81 q-12 -49 -54.5 -83t-92.5 -34q-47 0 -71.5 34t-12.5 83z" />
<glyph unicode="&#xc7;" horiz-adv-x="1574" d="M290.5 395q-44.5 165 2.5 373q54 218 204 399t355 284t418 103q170 0 301.5 -59t208.5 -176l-187 -150q-39 92 -139.5 144.5t-230.5 52.5q-116 0 -232 -49.5t-209.5 -131.5t-163 -191t-98.5 -226q-18 -72 -18.5 -144.5t15.5 -139.5t51 -124.5t84 -100t119 -67t153 -24.5 q118 0 231 43.5t236 150.5l110 -149q-259 -227 -612 -233l-74 -60q69 -5 104.5 -58t16.5 -128q-19 -77 -85.5 -132t-141.5 -55q-78 0 -115 60l119 117q10 -23 37 -23q22 0 42.5 18.5t26.5 44.5t-4.5 45t-32.5 19q-26 0 -49 -23l-90 64q11 11 133 117q-184 26 -312.5 135 t-173 274z" />
<glyph unicode="&#xc8;" horiz-adv-x="1368" d="M143 0l381 1536h1022l-45 -188h-794l-115 -455h649l-47 -191h-649l-129 -514h833l-45 -188h-1061zM891 1937l225 103l92 -340h-176z" />
<glyph unicode="&#xc9;" horiz-adv-x="1368" d="M143 0l381 1536h1022l-45 -188h-794l-115 -455h649l-47 -191h-649l-129 -514h833l-45 -188h-1061zM1014 1700l264 340l172 -103l-260 -237h-176z" />
<glyph unicode="&#xca;" horiz-adv-x="1368" d="M143 0l381 1536h1022l-45 -188h-794l-115 -455h649l-47 -191h-649l-129 -514h833l-45 -188h-1061zM762 1700l305 340h233l134 -340h-177l-110 196l-209 -196h-176z" />
<glyph unicode="&#xcb;" horiz-adv-x="1368" d="M143 0l381 1536h1022l-45 -188h-794l-115 -455h649l-47 -191h-649l-129 -514h833l-45 -188h-1061zM840 1817q10 47 52.5 80.5t90.5 33.5q49 0 74 -33t14 -81q-12 -49 -54.5 -83t-92.5 -34q-47 0 -71.5 34t-12.5 83zM1178 1817q10 47 52.5 80.5t90.5 33.5q49 0 74 -33 t14 -81q-12 -49 -54.5 -83t-92.5 -34q-47 0 -71.5 34t-12.5 83z" />
<glyph unicode="&#xcc;" horiz-adv-x="786" d="M354 0h228l381 1536h-228zM686 1937l225 103l93 -340h-177z" />
<glyph unicode="&#xcd;" horiz-adv-x="786" d="M205 0h227l381 1536h-227zM627 1700l264 340l172 -103l-260 -237h-176z" />
<glyph unicode="&#xce;" horiz-adv-x="1081" d="M426 0h227l381 1536h-227zM627 1700l305 340h233l133 -340h-176l-110 196l-209 -196h-176z" />
<glyph unicode="&#xcf;" horiz-adv-x="978" d="M375 0l381 1536h227l-381 -1536h-227zM657 1817q10 47 53 80.5t91 33.5q49 0 74 -33t14 -81q-12 -49 -55 -83t-93 -34q-47 0 -71.5 34t-12.5 83zM995 1817q10 47 53 80.5t91 33.5q49 0 74 -33t14 -81q-12 -49 -55 -83t-93 -34q-47 0 -71.5 34t-12.5 83z" />
<glyph unicode="&#xd2;" horiz-adv-x="1765" d="M269.5 514.5q-7.5 118.5 23.5 253.5q54 219 204.5 400t355 283.5t417.5 102.5q127 0 236.5 -39t186.5 -109.5t126.5 -168.5t57 -216t-23.5 -253q-41 -164 -139 -310.5t-229 -251t-290 -165.5t-318 -61q-127 0 -236.5 39t-187 110t-127 169t-57 216.5zM501 585.5 q2 -87.5 34.5 -164t84 -132.5t130.5 -88.5t174 -32.5q119 0 236 50t209 132.5t160 191.5t97 226q21 94 19 181.5t-34 163.5t-83.5 132t-130.5 88.5t-174 32.5q-118 0 -235 -50t-209.5 -132.5t-161 -191t-97.5 -224.5q-21 -95 -19 -182.5zM1028 1937l225 103l93 -340h-177z " />
<glyph unicode="&#xd3;" horiz-adv-x="1765" d="M269.5 514.5q-7.5 118.5 23.5 253.5q54 219 204.5 400t355 283.5t417.5 102.5q127 0 236.5 -39t186.5 -109.5t126.5 -168.5t57 -216t-23.5 -253q-41 -164 -139 -310.5t-229 -251t-290 -165.5t-318 -61q-127 0 -236.5 39t-187 110t-127 169t-57 216.5zM501 585.5 q2 -87.5 34.5 -164t84 -132.5t130.5 -88.5t174 -32.5q119 0 236 50t209 132.5t160 191.5t97 226q21 94 19 181.5t-34 163.5t-83.5 132t-130.5 88.5t-174 32.5q-118 0 -235 -50t-209.5 -132.5t-161 -191t-97.5 -224.5q-21 -95 -19 -182.5zM1280 1700l264 340l172 -103 l-260 -237h-176z" />
<glyph unicode="&#xd4;" horiz-adv-x="1765" d="M269.5 514.5q-7.5 118.5 23.5 253.5q54 219 204.5 400t355 283.5t417.5 102.5q127 0 236.5 -39t186.5 -109.5t126.5 -168.5t57 -216t-23.5 -253q-41 -164 -139 -310.5t-229 -251t-290 -165.5t-318 -61q-127 0 -236.5 39t-187 110t-127 169t-57 216.5zM501 585.5 q2 -87.5 34.5 -164t84 -132.5t130.5 -88.5t174 -32.5q119 0 236 50t209 132.5t160 191.5t97 226q21 94 19 181.5t-34 163.5t-83.5 132t-130.5 88.5t-174 32.5q-118 0 -235 -50t-209.5 -132.5t-161 -191t-97.5 -224.5q-21 -95 -19 -182.5zM969 1700l305 340h233l133 -340 h-176l-110 196l-209 -196h-176z" />
<glyph unicode="&#xd6;" horiz-adv-x="1765" d="M269.5 514.5q-7.5 118.5 23.5 253.5q54 219 204.5 400t355 283.5t417.5 102.5q127 0 236.5 -39t186.5 -109.5t126.5 -168.5t57 -216t-23.5 -253q-41 -164 -139 -310.5t-229 -251t-290 -165.5t-318 -61q-127 0 -236.5 39t-187 110t-127 169t-57 216.5zM501 585.5 q2 -87.5 34.5 -164t84 -132.5t130.5 -88.5t174 -32.5q119 0 236 50t209 132.5t160 191.5t97 226q21 94 19 181.5t-34 163.5t-83.5 132t-130.5 88.5t-174 32.5q-118 0 -235 -50t-209.5 -132.5t-161 -191t-97.5 -224.5q-21 -95 -19 -182.5zM1051 1837q12 47 54 81t89 34 q49 0 74.5 -33.5t13.5 -81.5q-12 -50 -54 -83.5t-91 -33.5q-48 0 -73 34t-13 83zM1389 1837q12 47 54 81t89 34q49 0 74.5 -33.5t13.5 -81.5q-12 -50 -54 -83.5t-91 -33.5q-48 0 -73 34t-13 83z" />
<glyph unicode="&#xd7;" horiz-adv-x="991" d="M242 309l247 197l-149 196l154 123l147 -196l246 196l92 -123l-248 -196l150 -197l-154 -121l-147 197l-246 -197z" />
<glyph unicode="&#xd9;" horiz-adv-x="1601" d="M309 370.5q-3 63.5 4 119t21 112.5l231 934h228l-232 -934q-7 -26 -11.5 -53.5t-7 -72.5t3 -84t24.5 -81.5t51.5 -73t89.5 -50t133 -19.5t143 20t113.5 49.5t86.5 73t64.5 81.5t44.5 84t28 72.5t15 53.5l232 934h227l-231 -934q-14 -57 -34.5 -112.5t-54.5 -119t-77 -118 t-104 -105.5t-132.5 -87.5t-166 -58t-201.5 -21.5t-191 21.5t-137.5 58t-89.5 87.5t-51.5 105.5t-18.5 118zM1042 1937l226 103l92 -340h-176z" />
<glyph unicode="&#xda;" horiz-adv-x="1601" d="M309 370.5q-3 63.5 4 119t21 112.5l231 934h228l-232 -934q-7 -26 -11.5 -53.5t-7 -72.5t3 -84t24.5 -81.5t51.5 -73t89.5 -50t133 -19.5t143 20t113.5 49.5t86.5 73t64.5 81.5t44.5 84t28 72.5t15 53.5l232 934h227l-231 -934q-14 -57 -34.5 -112.5t-54.5 -119t-77 -118 t-104 -105.5t-132.5 -87.5t-166 -58t-201.5 -21.5t-191 21.5t-137.5 58t-89.5 87.5t-51.5 105.5t-18.5 118zM1087 1700l265 340l172 -103l-260 -237h-177z" />
<glyph unicode="&#xdb;" horiz-adv-x="1601" d="M309 370.5q-3 63.5 4 119t21 112.5l231 934h228l-232 -934q-7 -26 -11.5 -53.5t-7 -72.5t3 -84t24.5 -81.5t51.5 -73t89.5 -50t133 -19.5t143 20t113.5 49.5t86.5 73t64.5 81.5t44.5 84t28 72.5t15 53.5l232 934h227l-231 -934q-14 -57 -34.5 -112.5t-54.5 -119t-77 -118 t-104 -105.5t-132.5 -87.5t-166 -58t-201.5 -21.5t-191 21.5t-137.5 58t-89.5 87.5t-51.5 105.5t-18.5 118zM885 1700l305 340h233l133 -340h-176l-110 196l-209 -196h-176z" />
<glyph unicode="&#xdc;" horiz-adv-x="1601" d="M309 370.5q-3 63.5 4 119t21 112.5l231 934h228l-232 -934q-7 -26 -11.5 -53.5t-7 -72.5t3 -84t24.5 -81.5t51.5 -73t89.5 -50t133 -19.5t143 20t113.5 49.5t86.5 73t64.5 81.5t44.5 84t28 72.5t15 53.5l232 934h227l-231 -934q-14 -57 -34.5 -112.5t-54.5 -119t-77 -118 t-104 -105.5t-132.5 -87.5t-166 -58t-201.5 -21.5t-191 21.5t-137.5 58t-89.5 87.5t-51.5 105.5t-18.5 118zM963 1817q10 47 52.5 80.5t90.5 33.5q49 0 74 -33t14 -81q-12 -49 -54.5 -83t-92.5 -34q-47 0 -71.5 34t-12.5 83zM1300 1817q10 47 53 80.5t91 33.5q49 0 74 -33 t14 -81q-12 -49 -55 -83t-93 -34q-47 0 -71.5 34t-12.5 83z" />
<glyph unicode="&#xdd;" horiz-adv-x="1411" d="M360 1536h277l291 -717l649 717h276l-862 -926l-151 -610h-228l152 610zM1047 1700l264 340l172 -103l-260 -237h-176z" />
<glyph unicode="&#xe0;" horiz-adv-x="1105" d="M156 297q22 91 70.5 159t113.5 107t135.5 57.5t147.5 18.5h286l19 68q5 22 5.5 40.5t-6.5 40t-24 36t-51.5 24.5t-83.5 10q-71 0 -142.5 -35t-131.5 -96l-113 131q95 82 206 128t224 46q71 0 128 -13.5t94.5 -37.5t64.5 -55.5t37 -67.5t12.5 -75t-8.5 -76l-176 -707h-211 l26 111q-66 -68 -155 -98.5t-164 -30.5q-171 0 -254 89t-49 226zM367 289q-9 -69 34.5 -102t128.5 -33q133 0 208 49t91 112l37 152h-258q-97 0 -164 -47t-77 -131zM635 1434l223 102l94 -340h-176z" />
<glyph unicode="&#xe1;" horiz-adv-x="1105" d="M156 297q22 91 70.5 159t113.5 107t135.5 57.5t147.5 18.5h286l19 68q5 22 5.5 40.5t-6.5 40t-24 36t-51.5 24.5t-83.5 10q-71 0 -142.5 -35t-131.5 -96l-113 131q95 82 206 128t224 46q71 0 128 -13.5t94.5 -37.5t64.5 -55.5t37 -67.5t12.5 -75t-8.5 -76l-176 -707h-211 l26 111q-66 -68 -155 -98.5t-164 -30.5q-171 0 -254 89t-49 226zM367 289q-9 -69 34.5 -102t128.5 -33q133 0 208 49t91 112l37 152h-258q-97 0 -164 -47t-77 -131zM797 1196l262 340l174 -102l-260 -238h-176z" />
<glyph unicode="&#xe2;" horiz-adv-x="1105" d="M156 297q22 91 70.5 159t113.5 107t135.5 57.5t147.5 18.5h286l19 68q5 22 5.5 40.5t-6.5 40t-24 36t-51.5 24.5t-83.5 10q-71 0 -142.5 -35t-131.5 -96l-113 131q95 82 206 128t224 46q71 0 128 -13.5t94.5 -37.5t64.5 -55.5t37 -67.5t12.5 -75t-8.5 -76l-176 -707h-211 l26 111q-66 -68 -155 -98.5t-164 -30.5q-171 0 -254 89t-49 226zM367 289q-9 -69 34.5 -102t128.5 -33q133 0 208 49t91 112l37 152h-258q-97 0 -164 -47t-77 -131zM516 1196l303 340h234l135 -340h-176l-111 197l-209 -197h-176z" />
<glyph unicode="&#xe4;" horiz-adv-x="1105" d="M156 297q22 91 70.5 159t113.5 107t135.5 57.5t147.5 18.5h286l19 68q5 22 5.5 40.5t-6.5 40t-24 36t-51.5 24.5t-83.5 10q-71 0 -142.5 -35t-131.5 -96l-113 131q95 82 206 128t224 46q71 0 128 -13.5t94.5 -37.5t64.5 -55.5t37 -67.5t12.5 -75t-8.5 -76l-176 -707h-211 l26 111q-66 -68 -155 -98.5t-164 -30.5q-171 0 -254 89t-49 226zM367 289q-9 -69 34.5 -102t128.5 -33q133 0 208 49t91 112l37 152h-258q-97 0 -164 -47t-77 -131zM608 1382q12 47 54.5 81t89.5 34q49 0 74.5 -33.5t13.5 -81.5q-12 -49 -54 -82.5t-92 -33.5q-48 0 -73 33.5 t-13 82.5zM946 1382q12 47 54.5 81t89.5 34q49 0 74.5 -33.5t13.5 -81.5q-12 -49 -54 -82.5t-92 -33.5q-48 0 -73 33.5t-13 82.5z" />
<glyph unicode="&#xe7;" horiz-adv-x="1077" d="M207 504q36 148 137 269t238.5 189t281.5 68q247 0 348 -153l-178 -132q-54 111 -213 111q-133 0 -249 -99.5t-154 -252.5q-38 -152 28.5 -252t198.5 -100q161 0 270 112l113 -131q-167 -143 -407 -153l-74 -60q69 -5 104.5 -58t16.5 -128q-19 -77 -86 -132t-142 -55 q-77 0 -114 60l118 117q10 -23 37 -23q22 0 43 18.5t27 44.5t-4.5 45t-32.5 19q-26 0 -49 -23l-90 64q13 13 135 119q-179 36 -266 177.5t-37 338.5z" />
<glyph unicode="&#xe8;" horiz-adv-x="1159" d="M170 295q-15 96 16 209q56 230 232 378t407 148q428 0 394 -428q-2 -37 -17 -98l-18 -76h-797q-16 -70 -1 -121.5t54 -86t87.5 -51.5t99.5 -17q73 0 154 36t139 97l112 -131q-170 -174 -448 -174q-121 0 -211.5 39.5t-139 109.5t-63.5 166zM434 602h572q30 119 -36 186.5 t-188 67.5q-119 0 -220 -71.5t-128 -182.5zM614 1434l224 102l94 -340h-176z" />
<glyph unicode="&#xe9;" horiz-adv-x="1159" d="M170 295q-15 96 16 209q56 230 232 378t407 148q428 0 394 -428q-2 -37 -17 -98l-18 -76h-797q-16 -70 -1 -121.5t54 -86t87.5 -51.5t99.5 -17q73 0 154 36t139 97l112 -131q-170 -174 -448 -174q-121 0 -211.5 39.5t-139 109.5t-63.5 166zM434 602h572q30 119 -36 186.5 t-188 67.5q-119 0 -220 -71.5t-128 -182.5zM797 1196l262 340l174 -102l-260 -238h-176z" />
<glyph unicode="&#xea;" horiz-adv-x="1159" d="M170 295q-15 96 16 209q56 230 232 378t407 148q428 0 394 -428q-2 -37 -17 -98l-18 -76h-797q-16 -70 -1 -121.5t54 -86t87.5 -51.5t99.5 -17q73 0 154 36t139 97l112 -131q-170 -174 -448 -174q-121 0 -211.5 39.5t-139 109.5t-63.5 166zM434 602h572q30 119 -36 186.5 t-188 67.5q-119 0 -220 -71.5t-128 -182.5zM532 1196l304 340h233l135 -340h-176l-110 197l-209 -197h-177z" />
<glyph unicode="&#xeb;" horiz-adv-x="1159" d="M170 295q-15 96 16 209q56 230 232 378t407 148q428 0 394 -428q-2 -37 -17 -98l-18 -76h-797q-16 -70 -1 -121.5t54 -86t87.5 -51.5t99.5 -17q73 0 154 36t139 97l112 -131q-170 -174 -448 -174q-121 0 -211.5 39.5t-139 109.5t-63.5 166zM434 602h572q30 119 -36 186.5 t-188 67.5q-119 0 -220 -71.5t-128 -182.5zM610 1382q12 47 54.5 81t89.5 34q49 0 74.5 -33.5t13.5 -81.5q-12 -49 -54 -82.5t-92 -33.5q-48 0 -73 33.5t-13 82.5zM948 1382q12 47 54.5 81t89.5 34q49 0 74.5 -33.5t13.5 -81.5q-12 -49 -54 -82.5t-92 -33.5q-48 0 -73 33.5 t-13 82.5z" />
<glyph unicode="&#xec;" horiz-adv-x="686" d="M311 0h211l252 1012h-211zM500 1434l223 102l94 -340h-176z" />
<glyph unicode="&#xed;" horiz-adv-x="684" d="M143 0h211l252 1012h-211zM440 1196l262 340l175 -102l-261 -238h-176z" />
<glyph unicode="&#xee;" horiz-adv-x="978" d="M373 0h211l252 1012h-211zM440 1196l303 340h234l135 -340h-176l-111 197l-209 -197h-176z" />
<glyph unicode="&#xef;" horiz-adv-x="876" d="M301 0l252 1012h211l-252 -1012h-211zM487 1382q12 47 54.5 81t89.5 34q49 0 74.5 -33.5t13.5 -81.5q-12 -49 -54 -82.5t-92 -33.5q-48 0 -73 33.5t-13 82.5zM825 1382q12 47 54.5 81t89.5 34q49 0 74.5 -33.5t13.5 -81.5q-12 -49 -54 -82.5t-92 -33.5q-48 0 -73 33.5 t-13 82.5z" />
<glyph unicode="&#xf2;" horiz-adv-x="1236" d="M207 504q36 148 137 269t238.5 189t281.5 68t247.5 -68t144 -189t4.5 -269q-57 -224 -247.5 -374t-410.5 -150t-335.5 150t-59.5 374zM418 504q-38 -152 28.5 -252t198.5 -100t249 100t155 252q38 153 -29 252.5t-199 99.5q-133 0 -249 -99.5t-154 -252.5zM709 1434 l223 102l94 -340h-176z" />
<glyph unicode="&#xf3;" horiz-adv-x="1236" d="M207 504q36 148 137 269t238.5 189t281.5 68t247.5 -68t144 -189t4.5 -269q-57 -224 -247.5 -374t-410.5 -150t-335.5 150t-59.5 374zM418 504q-38 -152 28.5 -252t198.5 -100t249 100t155 252q38 153 -29 252.5t-199 99.5q-133 0 -249 -99.5t-154 -252.5zM838 1196 l262 340l174 -102l-260 -238h-176z" />
<glyph unicode="&#xf4;" horiz-adv-x="1236" d="M207 504q36 148 137 269t238.5 189t281.5 68t247.5 -68t144 -189t4.5 -269q-57 -224 -247.5 -374t-410.5 -150t-335.5 150t-59.5 374zM418 504q-38 -152 28.5 -252t198.5 -100t249 100t155 252q38 153 -29 252.5t-199 99.5q-133 0 -249 -99.5t-154 -252.5zM573 1196 l304 340h233l135 -340h-176l-111 197l-208 -197h-177z" />
<glyph unicode="&#xf6;" horiz-adv-x="1236" d="M207 504q36 148 137 269t238.5 189t281.5 68t247.5 -68t144 -189t4.5 -269q-57 -224 -247.5 -374t-410.5 -150t-335.5 150t-59.5 374zM418 504q-38 -152 28.5 -252t198.5 -100t249 100t155 252q38 153 -29 252.5t-199 99.5q-133 0 -249 -99.5t-154 -252.5zM666 1382 q12 47 54 81t89 34q49 0 74.5 -33.5t13.5 -81.5q-12 -49 -53.5 -82.5t-91.5 -33.5q-48 0 -73 33.5t-13 82.5zM1004 1382q12 47 54 81t89 34q49 0 74.5 -33.5t13.5 -81.5q-12 -49 -53.5 -82.5t-91.5 -33.5q-48 0 -73 33.5t-13 82.5z" />
<glyph unicode="&#xf9;" horiz-adv-x="1243" d="M250 428l145 584h211l-141 -563q-40 -154 -2.5 -224.5t166.5 -70.5q141 0 230.5 86t125.5 229l135 543h211l-252 -1012h-211l39 164q-38 -68 -132.5 -121t-186.5 -59q-218 -16 -308.5 93t-29.5 351zM705 1434l223 102l94 -340h-176z" />
<glyph unicode="&#xfa;" horiz-adv-x="1243" d="M250 428l145 584h211l-141 -563q-40 -154 -2.5 -224.5t166.5 -70.5q141 0 230.5 86t125.5 229l135 543h211l-252 -1012h-211l39 164q-38 -68 -132.5 -121t-186.5 -59q-218 -16 -308.5 93t-29.5 351zM817 1196l262 340l174 -102l-260 -238h-176z" />
<glyph unicode="&#xfb;" horiz-adv-x="1243" d="M250 428l145 584h211l-141 -563q-40 -154 -2.5 -224.5t166.5 -70.5q141 0 230.5 86t125.5 229l135 543h211l-252 -1012h-211l39 164q-38 -68 -132.5 -121t-186.5 -59q-218 -16 -308.5 93t-29.5 351zM571 1196l303 340h234l135 -340h-176l-111 197l-208 -197h-177z" />
<glyph unicode="&#xfc;" horiz-adv-x="1243" d="M250 428l145 584h211l-141 -563q-40 -154 -2.5 -224.5t166.5 -70.5q141 0 230.5 86t125.5 229l135 543h211l-252 -1012h-211l39 164q-38 -68 -132.5 -121t-186.5 -59q-218 -16 -308.5 93t-29.5 351zM666 1374q12 47 54 81t89 34q49 0 74.5 -33.5t13.5 -81.5 q-12 -50 -54 -83.5t-91 -33.5q-48 0 -73 34t-13 83zM1004 1374q12 47 54 81t89 34q49 0 74.5 -33.5t13.5 -81.5q-12 -50 -54 -83.5t-91 -33.5q-48 0 -73 34t-13 83z" />
<glyph unicode="&#xfd;" horiz-adv-x="1042" d="M-180 -483l108 184q9 -11 30 -24t38 -17q36 -11 79 9t80 55.5t82 95t75.5 105.5t70.5 110q31 50 45 71l-156 906h213l113 -664l442 664h213q-409 -607 -678 -1012q-95 -141 -162.5 -230.5t-141.5 -167t-141 -112.5t-136 -35q-86 0 -174 62zM713 1196l262 340l174 -102 l-260 -238h-176z" />
<glyph unicode="&#xff;" horiz-adv-x="1042" d="M-180 -483l108 184q9 -11 30 -24t38 -17q36 -11 79 9t80 55.5t82 95t75.5 105.5t70.5 110q31 50 45 71l-156 906h213l113 -664l442 664h213q-409 -607 -678 -1012q-95 -141 -162.5 -230.5t-141.5 -167t-141 -112.5t-136 -35q-86 0 -174 62zM571 1374q12 47 54.5 81 t89.5 34q49 0 74.5 -33.5t13.5 -81.5q-12 -49 -54 -83t-92 -34q-48 0 -73 34t-13 83zM909 1374q12 47 54.5 81t89.5 34q49 0 74.5 -33.5t13.5 -81.5q-12 -49 -54 -83t-92 -34q-48 0 -73 34t-13 83z" />
<glyph unicode="&#x178;" horiz-adv-x="1411" d="M360 1536h277l291 -717l649 717h276l-862 -926l-151 -610h-228l152 610zM893 1819q12 47 54 80.5t89 33.5q49 0 74.5 -33.5t13.5 -80.5q-12 -50 -54 -83.5t-91 -33.5q-48 0 -73 34t-13 83zM1231 1819q12 47 54 80.5t89 33.5q49 0 74.5 -33.5t13.5 -80.5 q-12 -50 -54 -83.5t-91 -33.5q-48 0 -73 34t-13 83z" />
<glyph unicode="&#x2000;" horiz-adv-x="1020" />
<glyph unicode="&#x2001;" horiz-adv-x="2040" />
<glyph unicode="&#x2002;" horiz-adv-x="1020" />
<glyph unicode="&#x2003;" horiz-adv-x="2040" />
<glyph unicode="&#x2004;" horiz-adv-x="680" />
<glyph unicode="&#x2005;" horiz-adv-x="510" />
<glyph unicode="&#x2006;" horiz-adv-x="340" />
<glyph unicode="&#x2007;" horiz-adv-x="340" />
<glyph unicode="&#x2008;" horiz-adv-x="255" />
<glyph unicode="&#x2009;" horiz-adv-x="408" />
<glyph unicode="&#x200a;" horiz-adv-x="113" />
<glyph unicode="&#x2010;" horiz-adv-x="1097" d="M295 444l43 172h729l-43 -172h-729z" />
<glyph unicode="&#x2011;" horiz-adv-x="1097" d="M295 444l43 172h729l-43 -172h-729z" />
<glyph unicode="&#x2012;" horiz-adv-x="1097" d="M295 444l43 172h729l-43 -172h-729z" />
<glyph unicode="&#x2013;" horiz-adv-x="1705" />
<glyph unicode="&#x2014;" horiz-adv-x="2373" d="M295 444l114 172h1934l-114 -172h-1934z" />
<glyph unicode="&#x2018;" horiz-adv-x="471" d="M373 1092q11 43 49 84l260 276h68l-132 -233q28 -18 39.5 -52t1.5 -75q-13 -60 -65 -102t-111 -42q-61 0 -92.5 41.5t-17.5 102.5z" />
<glyph unicode="&#x2019;" horiz-adv-x="512" d="M358 950l136 234q-30 19 -42.5 53t-2.5 76q15 58 67 99.5t111 41.5q61 0 92 -41t16 -100q-12 -51 -45 -84l-262 -279h-70z" />
<glyph unicode="&#x201c;" horiz-adv-x="874" d="M373 1092q11 43 49 84l260 276h68l-132 -233q28 -18 39.5 -52t1.5 -75q-13 -60 -65 -102t-111 -42q-61 0 -92.5 41.5t-17.5 102.5zM752 1092q11 43 49 84l260 276h67l-131 -233q28 -18 39.5 -52t1.5 -75q-13 -60 -65 -102t-111 -42q-61 0 -92.5 41.5t-17.5 102.5z" />
<glyph unicode="&#x201d;" horiz-adv-x="866" d="M358 950l136 234q-30 19 -42.5 53t-2.5 76q15 58 67 99.5t111 41.5q61 0 92 -41t16 -100q-12 -51 -45 -84l-262 -279h-70zM735 950l135 234q-30 19 -42.5 53t-2.5 76q15 58 67.5 99.5t111.5 41.5q61 0 92 -41t16 -100q-12 -51 -45 -84l-262 -279h-70z" />
<glyph unicode="&#x2022;" horiz-adv-x="616" d="M332 762q15 59 66.5 100t111.5 41q61 0 93.5 -41t17.5 -100q-15 -62 -67.5 -104t-113.5 -42q-60 0 -91.5 42.5t-16.5 103.5z" />
<glyph unicode="&#x2026;" horiz-adv-x="1603" d="M154 125q13 58 65.5 99.5t112.5 41.5q61 0 92.5 -41t17.5 -100q-15 -61 -67.5 -103t-114.5 -42q-60 0 -90.5 41.5t-15.5 103.5zM606 125q13 58 65.5 99.5t112.5 41.5q61 0 93 -41t18 -100q-15 -61 -67.5 -103t-114.5 -42q-60 0 -91 42t-16 103zM1059 125q13 58 65.5 99.5 t112.5 41.5q61 0 93 -41t18 -100q-15 -61 -68 -103t-115 -42q-60 0 -90.5 41.5t-15.5 103.5z" />
<glyph unicode="&#x202f;" horiz-adv-x="408" />
<glyph unicode="&#x205f;" horiz-adv-x="510" />
<glyph unicode="&#x20ac;" horiz-adv-x="1654" d="M231 453l33 131h125q0 74 14 143h-104l33 131h108q70 198 218 357t341 249t392 90q170 0 301.5 -59t208.5 -176l-187 -150q-39 91 -140 144t-231 53q-211 0 -399.5 -145.5t-273.5 -362.5h635l-33 -131h-641q-15 -90 -10 -143h616l-33 -131h-565q37 -128 143 -206.5 t262 -78.5q118 0 231 43.5t236 150.5l111 -149q-133 -115 -294 -174t-331 -59q-243 0 -404.5 127.5t-195.5 345.5h-166z" />
<glyph unicode="&#x25fc;" horiz-adv-x="1013" d="M0 0v1014h1014v-1014h-1014z" />
</font>
</defs>
</svg>
